<?xml version="1.0" encoding="UTF-8"?>
<!DOCTYPE svg PUBLIC "-//W3C//DTD SVG 1.1//EN"
 "http://www.w3.org/Graphics/SVG/1.1/DTD/svg11.dtd">
<svg xmlns="http://www.w3.org/2000/svg" version="1.1"
     width="180mm" height="25mm" viewBox="0 0 100 1" stroke="none"
     preserveAspectRatio="none" shape-rendering="crispEdges">
<defs>
    <pattern id="pat_A3jiq" width=".2" height=".2"
             patternUnits="userSpaceOnUse" patternTransform="scale(13.889,1)" >
        <path d="M.1,0h.1v.1h-.2v.1h.1z" fill="#999" opacity=".5" />
    </pattern>
</defs>
<rect width="100" height="1" fill="url(#pat_A3jiq)" />
<path d="M1,.46V1h-1V.54z" fill="#D68801" />
<path d="M0,0h1v1h-1z" fill="#D68801" fill-opacity="1" />
<path d="M2,.46V1h-1V.54z" fill="#D78305" />
<path d="M1,0h1v1h-1z" fill="#D78305" fill-opacity="1" />
<path d="M3,.46V1h-1V.54z" fill="#D97F08" />
<path d="M2,0h1v1h-1z" fill="#D97F08" fill-opacity="1" />
<path d="M4,.46V1h-1V.54z" fill="#DB7A0C" />
<path d="M3,0h1v1h-1z" fill="#DB7A0C" fill-opacity="1" />
<path d="M5,.46V1h-1V.54z" fill="#DD7510" />
<path d="M4,0h1v1h-1z" fill="#DD7510" fill-opacity="1" />
<path d="M6,.46V1h-1V.54z" fill="#DF7014" />
<path d="M5,0h1v1h-1z" fill="#DF7014" fill-opacity="1" />
<path d="M7,.46V1h-1V.54z" fill="#E16B18" />
<path d="M6,0h1v1h-1z" fill="#E16B18" fill-opacity="1" />
<path d="M8,.46V1h-1V.54z" fill="#E3671C" />
<path d="M7,0h1v1h-1z" fill="#E3671C" fill-opacity="1" />
<path d="M9,.46V1h-1V.54z" fill="#E5621F" />
<path d="M8,0h1v1h-1z" fill="#E5621F" fill-opacity="1" />
<path d="M10,.46V1h-1V.54z" fill="#E75D23" />
<path d="M9,0h1v1h-1z" fill="#E75D23" fill-opacity="1" />
<path d="M11,.46V1h-1V.54z" fill="#E95827" />
<path d="M10,0h1v1h-1z" fill="#E95827" fill-opacity="1" />
<path d="M12,.46V1h-1V.54z" fill="#EA532B" />
<path d="M11,0h1v1h-1z" fill="#EA532B" fill-opacity="1" />
<path d="M13,.46V1h-1V.54z" fill="#EC4E2F" />
<path d="M12,0h1v1h-1z" fill="#EC4E2F" fill-opacity="1" />
<path d="M14,.46V1h-1V.54z" fill="#EE4A32" />
<path d="M13,0h1v1h-1z" fill="#EE4A32" fill-opacity="1" />
<path d="M15,.46V1h-1V.54z" fill="#F04536" />
<path d="M14,0h1v1h-1z" fill="#F04536" fill-opacity="1" />
<path d="M16,.46V1h-1V.54z" fill="#F2403A" />
<path d="M15,0h1v1h-1z" fill="#F2403A" fill-opacity="1" />
<path d="M17,.46V1h-1V.54z" fill="#F43B3E" />
<path d="M16,0h1v1h-1z" fill="#F43B3E" fill-opacity="1" />
<path d="M18,.46V1h-1V.54z" fill="#F63642" />
<path d="M17,0h1v1h-1z" fill="#F63642" fill-opacity="1" />
<path d="M19,.46V1h-1V.54z" fill="#F83246" />
<path d="M18,0h1v1h-1z" fill="#F83246" fill-opacity="1" />
<path d="M20,.46V1h-1V.54z" fill="#FA2D49" />
<path d="M19,0h1v1h-1z" fill="#FA2D49" fill-opacity="1" />
<path d="M21,.46V1h-1V.54z" fill="#FA2A4D" />
<path d="M20,0h1v1h-1z" fill="#FA2A4D" fill-opacity="1" />
<path d="M22,.46V1h-1V.54z" fill="#F52D53" />
<path d="M21,0h1v1h-1z" fill="#F52D53" fill-opacity="1" />
<path d="M23,.46V1h-1V.54z" fill="#F03158" />
<path d="M22,0h1v1h-1z" fill="#F03158" fill-opacity="1" />
<path d="M24,.46V1h-1V.54z" fill="#EB355E" />
<path d="M23,0h1v1h-1z" fill="#EB355E" fill-opacity="1" />
<path d="M25,.46V1h-1V.54z" fill="#E63863" />
<path d="M24,0h1v1h-1z" fill="#E63863" fill-opacity="1" />
<path d="M26,.46V1h-1V.54z" fill="#E13C69" />
<path d="M25,0h1v1h-1z" fill="#E13C69" fill-opacity="1" />
<path d="M27,.46V1h-1V.54z" fill="#DC406E" />
<path d="M26,0h1v1h-1z" fill="#DC406E" fill-opacity="1" />
<path d="M28,.46V1h-1V.54z" fill="#D74373" />
<path d="M27,0h1v1h-1z" fill="#D74373" fill-opacity="1" />
<path d="M29,.46V1h-1V.54z" fill="#D14779" />
<path d="M28,0h1v1h-1z" fill="#D14779" fill-opacity="1" />
<path d="M30,.46V1h-1V.54z" fill="#CC4A7E" />
<path d="M29,0h1v1h-1z" fill="#CC4A7E" fill-opacity="1" />
<path d="M31,.46V1h-1V.54z" fill="#C74E84" />
<path d="M30,0h1v1h-1z" fill="#C74E84" fill-opacity="1" />
<path d="M32,.46V1h-1V.54z" fill="#C25289" />
<path d="M31,0h1v1h-1z" fill="#C25289" fill-opacity="1" />
<path d="M33,.46V1h-1V.54z" fill="#BD558E" />
<path d="M32,0h1v1h-1z" fill="#BD558E" fill-opacity="1" />
<path d="M34,.46V1h-1V.54z" fill="#B85994" />
<path d="M33,0h1v1h-1z" fill="#B85994" fill-opacity="1" />
<path d="M35,.46V1h-1V.54z" fill="#B35D99" />
<path d="M34,0h1v1h-1z" fill="#B35D99" fill-opacity="1" />
<path d="M36,.46V1h-1V.54z" fill="#AE609F" />
<path d="M35,0h1v1h-1z" fill="#AE609F" fill-opacity="1" />
<path d="M37,.46V1h-1V.54z" fill="#A964A4" />
<path d="M36,0h1v1h-1z" fill="#A964A4" fill-opacity="1" />
<path d="M38,.46V1h-1V.54z" fill="#A468A9" />
<path d="M37,0h1v1h-1z" fill="#A468A9" fill-opacity="1" />
<path d="M39,.46V1h-1V.54z" fill="#9F6BAF" />
<path d="M38,0h1v1h-1z" fill="#9F6BAF" fill-opacity="1" />
<path d="M40,.46V1h-1V.54z" fill="#996FB4" />
<path d="M39,0h1v1h-1z" fill="#996FB4" fill-opacity="1" />
<path d="M41,.46V1h-1V.54z" fill="#9472BA" />
<path d="M40,0h1v1h-1z" fill="#9472BA" fill-opacity="1" />
<path d="M42,.46V1h-1V.54z" fill="#8F76BF" />
<path d="M41,0h1v1h-1z" fill="#8F76BF" fill-opacity="1" />
<path d="M43,.46V1h-1V.54z" fill="#8A7AC4" />
<path d="M42,0h1v1h-1z" fill="#8A7AC4" fill-opacity="1" />
<path d="M44,.46V1h-1V.54z" fill="#857DCA" />
<path d="M43,0h1v1h-1z" fill="#857DCA" fill-opacity="1" />
<path d="M45,.46V1h-1V.54z" fill="#8081CF" />
<path d="M44,0h1v1h-1z" fill="#8081CF" fill-opacity="1" />
<path d="M46,.46V1h-1V.54z" fill="#7B85D5" />
<path d="M45,0h1v1h-1z" fill="#7B85D5" fill-opacity="1" />
<path d="M47,.46V1h-1V.54z" fill="#7688DA" />
<path d="M46,0h1v1h-1z" fill="#7688DA" fill-opacity="1" />
<path d="M48,.46V1h-1V.54z" fill="#718CDF" />
<path d="M47,0h1v1h-1z" fill="#718CDF" fill-opacity="1" />
<path d="M49,.46V1h-1V.54z" fill="#6C90E5" />
<path d="M48,0h1v1h-1z" fill="#6C90E5" fill-opacity="1" />
<path d="M50,.46V1h-1V.54z" fill="#6793EA" />
<path d="M49,0h1v1h-1z" fill="#6793EA" fill-opacity="1" />
<path d="M51,.46V1h-1V.54z" fill="#6495EA" />
<path d="M50,0h1v1h-1z" fill="#6495EA" fill-opacity="1" />
<path d="M52,.46V1h-1V.54z" fill="#6596E5" />
<path d="M51,0h1v1h-1z" fill="#6596E5" fill-opacity="1" />
<path d="M53,.46V1h-1V.54z" fill="#6697E0" />
<path d="M52,0h1v1h-1z" fill="#6697E0" fill-opacity="1" />
<path d="M54,.46V1h-1V.54z" fill="#6698DB" />
<path d="M53,0h1v1h-1z" fill="#6698DB" fill-opacity="1" />
<path d="M55,.46V1h-1V.54z" fill="#6798D6" />
<path d="M54,0h1v1h-1z" fill="#6798D6" fill-opacity="1" />
<path d="M56,.46V1h-1V.54z" fill="#6899D1" />
<path d="M55,0h1v1h-1z" fill="#6899D1" fill-opacity="1" />
<path d="M57,.46V1h-1V.54z" fill="#689ACC" />
<path d="M56,0h1v1h-1z" fill="#689ACC" fill-opacity="1" />
<path d="M58,.46V1h-1V.54z" fill="#699BC7" />
<path d="M57,0h1v1h-1z" fill="#699BC7" fill-opacity="1" />
<path d="M59,.46V1h-1V.54z" fill="#699BC2" />
<path d="M58,0h1v1h-1z" fill="#699BC2" fill-opacity="1" />
<path d="M60,.46V1h-1V.54z" fill="#6A9CBD" />
<path d="M59,0h1v1h-1z" fill="#6A9CBD" fill-opacity="1" />
<path d="M61,.46V1h-1V.54z" fill="#6B9DB8" />
<path d="M60,0h1v1h-1z" fill="#6B9DB8" fill-opacity="1" />
<path d="M62,.46V1h-1V.54z" fill="#6B9EB3" />
<path d="M61,0h1v1h-1z" fill="#6B9EB3" fill-opacity="1" />
<path d="M63,.46V1h-1V.54z" fill="#6C9EAE" />
<path d="M62,0h1v1h-1z" fill="#6C9EAE" fill-opacity="1" />
<path d="M64,.46V1h-1V.54z" fill="#6D9FA9" />
<path d="M63,0h1v1h-1z" fill="#6D9FA9" fill-opacity="1" />
<path d="M65,.46V1h-1V.54z" fill="#6DA0A4" />
<path d="M64,0h1v1h-1z" fill="#6DA0A4" fill-opacity="1" />
<path d="M66,.46V1h-1V.54z" fill="#6EA09F" />
<path d="M65,0h1v1h-1z" fill="#6EA09F" fill-opacity="1" />
<path d="M67,.46V1h-1V.54z" fill="#6FA19A" />
<path d="M66,0h1v1h-1z" fill="#6FA19A" fill-opacity="1" />
<path d="M68,.46V1h-1V.54z" fill="#6FA295" />
<path d="M67,0h1v1h-1z" fill="#6FA295" fill-opacity="1" />
<path d="M69,.46V1h-1V.54z" fill="#70A390" />
<path d="M68,0h1v1h-1z" fill="#70A390" fill-opacity="1" />
<path d="M70,.46V1h-1V.54z" fill="#70A38B" />
<path d="M69,0h1v1h-1z" fill="#70A38B" fill-opacity="1" />
<path d="M71,.46V1h-1V.54z" fill="#71A486" />
<path d="M70,0h1v1h-1z" fill="#71A486" fill-opacity="1" />
<path d="M72,.46V1h-1V.54z" fill="#72A581" />
<path d="M71,0h1v1h-1z" fill="#72A581" fill-opacity="1" />
<path d="M73,.46V1h-1V.54z" fill="#72A67C" />
<path d="M72,0h1v1h-1z" fill="#72A67C" fill-opacity="1" />
<path d="M74,.46V1h-1V.54z" fill="#73A677" />
<path d="M73,0h1v1h-1z" fill="#73A677" fill-opacity="1" />
<path d="M75,.46V1h-1V.54z" fill="#74A772" />
<path d="M74,0h1v1h-1z" fill="#74A772" fill-opacity="1" />
<path d="M76,.46V1h-1V.54z" fill="#74A86D" />
<path d="M75,0h1v1h-1z" fill="#74A86D" fill-opacity="1" />
<path d="M77,.46V1h-1V.54z" fill="#75A968" />
<path d="M76,0h1v1h-1z" fill="#75A968" fill-opacity="1" />
<path d="M78,.46V1h-1V.54z" fill="#76A963" />
<path d="M77,0h1v1h-1z" fill="#76A963" fill-opacity="1" />
<path d="M79,.46V1h-1V.54z" fill="#76AA5E" />
<path d="M78,0h1v1h-1z" fill="#76AA5E" fill-opacity="1" />
<path d="M80,.46V1h-1V.54z" fill="#77AB59" />
<path d="M79,0h1v1h-1z" fill="#77AB59" fill-opacity="1" />
<path d="M81,.46V1h-1V.54z" fill="#7BAA54" />
<path d="M80,0h1v1h-1z" fill="#7BAA54" fill-opacity="1" />
<path d="M82,.46V1h-1V.54z" fill="#80A850" />
<path d="M81,0h1v1h-1z" fill="#80A850" fill-opacity="1" />
<path d="M83,.46V1h-1V.54z" fill="#84A64C" />
<path d="M82,0h1v1h-1z" fill="#84A64C" fill-opacity="1" />
<path d="M84,.46V1h-1V.54z" fill="#89A447" />
<path d="M83,0h1v1h-1z" fill="#89A447" fill-opacity="1" />
<path d="M85,.46V1h-1V.54z" fill="#8EA343" />
<path d="M84,0h1v1h-1z" fill="#8EA343" fill-opacity="1" />
<path d="M86,.46V1h-1V.54z" fill="#93A13E" />
<path d="M85,0h1v1h-1z" fill="#93A13E" fill-opacity="1" />
<path d="M87,.46V1h-1V.54z" fill="#979F3A" />
<path d="M86,0h1v1h-1z" fill="#979F3A" fill-opacity="1" />
<path d="M88,.46V1h-1V.54z" fill="#9C9D36" />
<path d="M87,0h1v1h-1z" fill="#9C9D36" fill-opacity="1" />
<path d="M89,.46V1h-1V.54z" fill="#A19C31" />
<path d="M88,0h1v1h-1z" fill="#A19C31" fill-opacity="1" />
<path d="M90,.46V1h-1V.54z" fill="#A69A2D" />
<path d="M89,0h1v1h-1z" fill="#A69A2D" fill-opacity="1" />
<path d="M91,.46V1h-1V.54z" fill="#AB9828" />
<path d="M90,0h1v1h-1z" fill="#AB9828" fill-opacity="1" />
<path d="M92,.46V1h-1V.54z" fill="#AF9624" />
<path d="M91,0h1v1h-1z" fill="#AF9624" fill-opacity="1" />
<path d="M93,.46V1h-1V.54z" fill="#B49420" />
<path d="M92,0h1v1h-1z" fill="#B49420" fill-opacity="1" />
<path d="M94,.46V1h-1V.54z" fill="#B9931B" />
<path d="M93,0h1v1h-1z" fill="#B9931B" fill-opacity="1" />
<path d="M95,.46V1h-1V.54z" fill="#BE9117" />
<path d="M94,0h1v1h-1z" fill="#BE9117" fill-opacity="1" />
<path d="M96,.46V1h-1V.54z" fill="#C28F12" />
<path d="M95,0h1v1h-1z" fill="#C28F12" fill-opacity="1" />
<path d="M97,.46V1h-1V.54z" fill="#C78D0E" />
<path d="M96,0h1v1h-1z" fill="#C78D0E" fill-opacity="1" />
<path d="M98,.46V1h-1V.54z" fill="#CC8C0A" />
<path d="M97,0h1v1h-1z" fill="#CC8C0A" fill-opacity="1" />
<path d="M99,.46V1h-1V.54z" fill="#D18A05" />
<path d="M98,0h1v1h-1z" fill="#D18A05" fill-opacity="1" />
<path d="M100,.46V1h-1V.54z" fill="#D68801" />
<path d="M99,0h1v1h-1z" fill="#D68801" fill-opacity="1" />
</svg>