<?xml version="1.0" encoding="UTF-8"?>
<!DOCTYPE svg PUBLIC "-//W3C//DTD SVG 1.1//EN"
 "http://www.w3.org/Graphics/SVG/1.1/DTD/svg11.dtd">
<svg xmlns="http://www.w3.org/2000/svg" version="1.1"
     width="180mm" height="25mm" viewBox="0 0 100 1" stroke="none"
     preserveAspectRatio="none" shape-rendering="crispEdges">
<defs>
    <pattern id="pat_MBqJA" width=".2" height=".2"
             patternUnits="userSpaceOnUse" patternTransform="scale(13.889,1)" >
        <path d="M.1,0h.1v.1h-.2v.1h.1z" fill="#999" opacity=".5" />
    </pattern>
</defs>
<rect width="100" height="1" fill="url(#pat_MBqJA)" />
<path d="M1,.46V1h-1V.54z" fill="#FFA829" />
<path d="M0,0h1v1h-1z" fill="#FFA829" fill-opacity="1" />
<path d="M2,.46V1h-1V.54z" fill="#FFA32B" />
<path d="M1,0h1v1h-1z" fill="#FFA32B" fill-opacity="1" />
<path d="M3,.46V1h-1V.54z" fill="#FE9D2D" />
<path d="M2,0h1v1h-1z" fill="#FE9D2D" fill-opacity="1" />
<path d="M4,.46V1h-1V.54z" fill="#FE982F" />
<path d="M3,0h1v1h-1z" fill="#FE982F" fill-opacity="1" />
<path d="M5,.46V1h-1V.54z" fill="#FE9331" />
<path d="M4,0h1v1h-1z" fill="#FE9331" fill-opacity="1" />
<path d="M6,.46V1h-1V.54z" fill="#FE8D34" />
<path d="M5,0h1v1h-1z" fill="#FE8D34" fill-opacity="1" />
<path d="M7,.46V1h-1V.54z" fill="#FD8836" />
<path d="M6,0h1v1h-1z" fill="#FD8836" fill-opacity="1" />
<path d="M8,.46V1h-1V.54z" fill="#FD8238" />
<path d="M7,0h1v1h-1z" fill="#FD8238" fill-opacity="1" />
<path d="M9,.46V1h-1V.54z" fill="#FD7D3A" />
<path d="M8,0h1v1h-1z" fill="#FD7D3A" fill-opacity="1" />
<path d="M10,.46V1h-1V.54z" fill="#FC783C" />
<path d="M9,0h1v1h-1z" fill="#FC783C" fill-opacity="1" />
<path d="M11,.46V1h-1V.54z" fill="#FC723E" />
<path d="M10,0h1v1h-1z" fill="#FC723E" fill-opacity="1" />
<path d="M12,.46V1h-1V.54z" fill="#FC6D40" />
<path d="M11,0h1v1h-1z" fill="#FC6D40" fill-opacity="1" />
<path d="M13,.46V1h-1V.54z" fill="#FB6742" />
<path d="M12,0h1v1h-1z" fill="#FB6742" fill-opacity="1" />
<path d="M14,.46V1h-1V.54z" fill="#FB6245" />
<path d="M13,0h1v1h-1z" fill="#FB6245" fill-opacity="1" />
<path d="M15,.46V1h-1V.54z" fill="#FB5C47" />
<path d="M14,0h1v1h-1z" fill="#FB5C47" fill-opacity="1" />
<path d="M16,.46V1h-1V.54z" fill="#FB5749" />
<path d="M15,0h1v1h-1z" fill="#FB5749" fill-opacity="1" />
<path d="M17,.46V1h-1V.54z" fill="#FA524B" />
<path d="M16,0h1v1h-1z" fill="#FA524B" fill-opacity="1" />
<path d="M18,.46V1h-1V.54z" fill="#FA4C4D" />
<path d="M17,0h1v1h-1z" fill="#FA4C4D" fill-opacity="1" />
<path d="M19,.46V1h-1V.54z" fill="#FA474F" />
<path d="M18,0h1v1h-1z" fill="#FA474F" fill-opacity="1" />
<path d="M20,.46V1h-1V.54z" fill="#F94151" />
<path d="M19,0h1v1h-1z" fill="#F94151" fill-opacity="1" />
<path d="M21,.46V1h-1V.54z" fill="#F83E54" />
<path d="M20,0h1v1h-1z" fill="#F83E54" fill-opacity="1" />
<path d="M22,.46V1h-1V.54z" fill="#F5415B" />
<path d="M21,0h1v1h-1z" fill="#F5415B" fill-opacity="1" />
<path d="M23,.46V1h-1V.54z" fill="#F24462" />
<path d="M22,0h1v1h-1z" fill="#F24462" fill-opacity="1" />
<path d="M24,.46V1h-1V.54z" fill="#EF4768" />
<path d="M23,0h1v1h-1z" fill="#EF4768" fill-opacity="1" />
<path d="M25,.46V1h-1V.54z" fill="#EB4A6F" />
<path d="M24,0h1v1h-1z" fill="#EB4A6F" fill-opacity="1" />
<path d="M26,.46V1h-1V.54z" fill="#E84D76" />
<path d="M25,0h1v1h-1z" fill="#E84D76" fill-opacity="1" />
<path d="M27,.46V1h-1V.54z" fill="#E5507C" />
<path d="M26,0h1v1h-1z" fill="#E5507C" fill-opacity="1" />
<path d="M28,.46V1h-1V.54z" fill="#E25383" />
<path d="M27,0h1v1h-1z" fill="#E25383" fill-opacity="1" />
<path d="M29,.46V1h-1V.54z" fill="#DE568A" />
<path d="M28,0h1v1h-1z" fill="#DE568A" fill-opacity="1" />
<path d="M30,.46V1h-1V.54z" fill="#DB5A90" />
<path d="M29,0h1v1h-1z" fill="#DB5A90" fill-opacity="1" />
<path d="M31,.46V1h-1V.54z" fill="#D85D97" />
<path d="M30,0h1v1h-1z" fill="#D85D97" fill-opacity="1" />
<path d="M32,.46V1h-1V.54z" fill="#D5609E" />
<path d="M31,0h1v1h-1z" fill="#D5609E" fill-opacity="1" />
<path d="M33,.46V1h-1V.54z" fill="#D163A4" />
<path d="M32,0h1v1h-1z" fill="#D163A4" fill-opacity="1" />
<path d="M34,.46V1h-1V.54z" fill="#CE66AB" />
<path d="M33,0h1v1h-1z" fill="#CE66AB" fill-opacity="1" />
<path d="M35,.46V1h-1V.54z" fill="#CB69B2" />
<path d="M34,0h1v1h-1z" fill="#CB69B2" fill-opacity="1" />
<path d="M36,.46V1h-1V.54z" fill="#C86CB8" />
<path d="M35,0h1v1h-1z" fill="#C86CB8" fill-opacity="1" />
<path d="M37,.46V1h-1V.54z" fill="#C46FBF" />
<path d="M36,0h1v1h-1z" fill="#C46FBF" fill-opacity="1" />
<path d="M38,.46V1h-1V.54z" fill="#C172C6" />
<path d="M37,0h1v1h-1z" fill="#C172C6" fill-opacity="1" />
<path d="M39,.46V1h-1V.54z" fill="#BE75CD" />
<path d="M38,0h1v1h-1z" fill="#BE75CD" fill-opacity="1" />
<path d="M40,.46V1h-1V.54z" fill="#BB79D3" />
<path d="M39,0h1v1h-1z" fill="#BB79D3" fill-opacity="1" />
<path d="M41,.46V1h-1V.54z" fill="#B77BD8" />
<path d="M40,0h1v1h-1z" fill="#B77BD8" fill-opacity="1" />
<path d="M42,.46V1h-1V.54z" fill="#B37DDA" />
<path d="M41,0h1v1h-1z" fill="#B37DDA" fill-opacity="1" />
<path d="M43,.46V1h-1V.54z" fill="#B07FDB" />
<path d="M42,0h1v1h-1z" fill="#B07FDB" fill-opacity="1" />
<path d="M44,.46V1h-1V.54z" fill="#AC81DD" />
<path d="M43,0h1v1h-1z" fill="#AC81DD" fill-opacity="1" />
<path d="M45,.46V1h-1V.54z" fill="#A883DF" />
<path d="M44,0h1v1h-1z" fill="#A883DF" fill-opacity="1" />
<path d="M46,.46V1h-1V.54z" fill="#A485E0" />
<path d="M45,0h1v1h-1z" fill="#A485E0" fill-opacity="1" />
<path d="M47,.46V1h-1V.54z" fill="#A187E2" />
<path d="M46,0h1v1h-1z" fill="#A187E2" fill-opacity="1" />
<path d="M48,.46V1h-1V.54z" fill="#9D89E4" />
<path d="M47,0h1v1h-1z" fill="#9D89E4" fill-opacity="1" />
<path d="M49,.46V1h-1V.54z" fill="#998AE6" />
<path d="M48,0h1v1h-1z" fill="#998AE6" fill-opacity="1" />
<path d="M50,.46V1h-1V.54z" fill="#958CE7" />
<path d="M49,0h1v1h-1z" fill="#958CE7" fill-opacity="1" />
<path d="M51,.46V1h-1V.54z" fill="#928EE9" />
<path d="M50,0h1v1h-1z" fill="#928EE9" fill-opacity="1" />
<path d="M52,.46V1h-1V.54z" fill="#8E90EB" />
<path d="M51,0h1v1h-1z" fill="#8E90EB" fill-opacity="1" />
<path d="M53,.46V1h-1V.54z" fill="#8A92EC" />
<path d="M52,0h1v1h-1z" fill="#8A92EC" fill-opacity="1" />
<path d="M54,.46V1h-1V.54z" fill="#8694EE" />
<path d="M53,0h1v1h-1z" fill="#8694EE" fill-opacity="1" />
<path d="M55,.46V1h-1V.54z" fill="#8396F0" />
<path d="M54,0h1v1h-1z" fill="#8396F0" fill-opacity="1" />
<path d="M56,.46V1h-1V.54z" fill="#7F98F2" />
<path d="M55,0h1v1h-1z" fill="#7F98F2" fill-opacity="1" />
<path d="M57,.46V1h-1V.54z" fill="#7B9AF3" />
<path d="M56,0h1v1h-1z" fill="#7B9AF3" fill-opacity="1" />
<path d="M58,.46V1h-1V.54z" fill="#779CF5" />
<path d="M57,0h1v1h-1z" fill="#779CF5" fill-opacity="1" />
<path d="M59,.46V1h-1V.54z" fill="#749EF7" />
<path d="M58,0h1v1h-1z" fill="#749EF7" fill-opacity="1" />
<path d="M60,.46V1h-1V.54z" fill="#709FF8" />
<path d="M59,0h1v1h-1z" fill="#709FF8" fill-opacity="1" />
<path d="M61,.46V1h-1V.54z" fill="#6FA1F5" />
<path d="M60,0h1v1h-1z" fill="#6FA1F5" fill-opacity="1" />
<path d="M62,.46V1h-1V.54z" fill="#71A2ED" />
<path d="M61,0h1v1h-1z" fill="#71A2ED" fill-opacity="1" />
<path d="M63,.46V1h-1V.54z" fill="#72A4E6" />
<path d="M62,0h1v1h-1z" fill="#72A4E6" fill-opacity="1" />
<path d="M64,.46V1h-1V.54z" fill="#73A5DF" />
<path d="M63,0h1v1h-1z" fill="#73A5DF" fill-opacity="1" />
<path d="M65,.46V1h-1V.54z" fill="#74A7D8" />
<path d="M64,0h1v1h-1z" fill="#74A7D8" fill-opacity="1" />
<path d="M66,.46V1h-1V.54z" fill="#76A8D0" />
<path d="M65,0h1v1h-1z" fill="#76A8D0" fill-opacity="1" />
<path d="M67,.46V1h-1V.54z" fill="#77AAC9" />
<path d="M66,0h1v1h-1z" fill="#77AAC9" fill-opacity="1" />
<path d="M68,.46V1h-1V.54z" fill="#78ABC2" />
<path d="M67,0h1v1h-1z" fill="#78ABC2" fill-opacity="1" />
<path d="M69,.46V1h-1V.54z" fill="#79ACBA" />
<path d="M68,0h1v1h-1z" fill="#79ACBA" fill-opacity="1" />
<path d="M70,.46V1h-1V.54z" fill="#7BAEB3" />
<path d="M69,0h1v1h-1z" fill="#7BAEB3" fill-opacity="1" />
<path d="M71,.46V1h-1V.54z" fill="#7CAFAC" />
<path d="M70,0h1v1h-1z" fill="#7CAFAC" fill-opacity="1" />
<path d="M72,.46V1h-1V.54z" fill="#7DB1A5" />
<path d="M71,0h1v1h-1z" fill="#7DB1A5" fill-opacity="1" />
<path d="M73,.46V1h-1V.54z" fill="#7EB29D" />
<path d="M72,0h1v1h-1z" fill="#7EB29D" fill-opacity="1" />
<path d="M74,.46V1h-1V.54z" fill="#80B496" />
<path d="M73,0h1v1h-1z" fill="#80B496" fill-opacity="1" />
<path d="M75,.46V1h-1V.54z" fill="#81B58F" />
<path d="M74,0h1v1h-1z" fill="#81B58F" fill-opacity="1" />
<path d="M76,.46V1h-1V.54z" fill="#82B687" />
<path d="M75,0h1v1h-1z" fill="#82B687" fill-opacity="1" />
<path d="M77,.46V1h-1V.54z" fill="#84B880" />
<path d="M76,0h1v1h-1z" fill="#84B880" fill-opacity="1" />
<path d="M78,.46V1h-1V.54z" fill="#85B979" />
<path d="M77,0h1v1h-1z" fill="#85B979" fill-opacity="1" />
<path d="M79,.46V1h-1V.54z" fill="#86BB72" />
<path d="M78,0h1v1h-1z" fill="#86BB72" fill-opacity="1" />
<path d="M80,.46V1h-1V.54z" fill="#87BC6A" />
<path d="M79,0h1v1h-1z" fill="#87BC6A" fill-opacity="1" />
<path d="M81,.46V1h-1V.54z" fill="#8CBC66" />
<path d="M80,0h1v1h-1z" fill="#8CBC66" fill-opacity="1" />
<path d="M82,.46V1h-1V.54z" fill="#92BB63" />
<path d="M81,0h1v1h-1z" fill="#92BB63" fill-opacity="1" />
<path d="M83,.46V1h-1V.54z" fill="#99BA60" />
<path d="M82,0h1v1h-1z" fill="#99BA60" fill-opacity="1" />
<path d="M84,.46V1h-1V.54z" fill="#9FB95D" />
<path d="M83,0h1v1h-1z" fill="#9FB95D" fill-opacity="1" />
<path d="M85,.46V1h-1V.54z" fill="#A5B859" />
<path d="M84,0h1v1h-1z" fill="#A5B859" fill-opacity="1" />
<path d="M86,.46V1h-1V.54z" fill="#ABB756" />
<path d="M85,0h1v1h-1z" fill="#ABB756" fill-opacity="1" />
<path d="M87,.46V1h-1V.54z" fill="#B1B653" />
<path d="M86,0h1v1h-1z" fill="#B1B653" fill-opacity="1" />
<path d="M88,.46V1h-1V.54z" fill="#B7B550" />
<path d="M87,0h1v1h-1z" fill="#B7B550" fill-opacity="1" />
<path d="M89,.46V1h-1V.54z" fill="#BDB44C" />
<path d="M88,0h1v1h-1z" fill="#BDB44C" fill-opacity="1" />
<path d="M90,.46V1h-1V.54z" fill="#C3B249" />
<path d="M89,0h1v1h-1z" fill="#C3B249" fill-opacity="1" />
<path d="M91,.46V1h-1V.54z" fill="#C9B146" />
<path d="M90,0h1v1h-1z" fill="#C9B146" fill-opacity="1" />
<path d="M92,.46V1h-1V.54z" fill="#CFB043" />
<path d="M91,0h1v1h-1z" fill="#CFB043" fill-opacity="1" />
<path d="M93,.46V1h-1V.54z" fill="#D5AF3F" />
<path d="M92,0h1v1h-1z" fill="#D5AF3F" fill-opacity="1" />
<path d="M94,.46V1h-1V.54z" fill="#DBAE3C" />
<path d="M93,0h1v1h-1z" fill="#DBAE3C" fill-opacity="1" />
<path d="M95,.46V1h-1V.54z" fill="#E1AD39" />
<path d="M94,0h1v1h-1z" fill="#E1AD39" fill-opacity="1" />
<path d="M96,.46V1h-1V.54z" fill="#E7AC36" />
<path d="M95,0h1v1h-1z" fill="#E7AC36" fill-opacity="1" />
<path d="M97,.46V1h-1V.54z" fill="#EDAB33" />
<path d="M96,0h1v1h-1z" fill="#EDAB33" fill-opacity="1" />
<path d="M98,.46V1h-1V.54z" fill="#F3AA2F" />
<path d="M97,0h1v1h-1z" fill="#F3AA2F" fill-opacity="1" />
<path d="M99,.46V1h-1V.54z" fill="#F9A92C" />
<path d="M98,0h1v1h-1z" fill="#F9A92C" fill-opacity="1" />
<path d="M100,.46V1h-1V.54z" fill="#FFA829" />
<path d="M99,0h1v1h-1z" fill="#FFA829" fill-opacity="1" />
</svg>