<?xml version="1.0" encoding="UTF-8"?>
<!DOCTYPE svg PUBLIC "-//W3C//DTD SVG 1.1//EN"
 "http://www.w3.org/Graphics/SVG/1.1/DTD/svg11.dtd">
<svg xmlns="http://www.w3.org/2000/svg" version="1.1"
     width="180mm" height="25mm" viewBox="0 0 100 1" stroke="none"
     preserveAspectRatio="none" shape-rendering="crispEdges">
<defs>
    <pattern id="pat_1X2KWl" width=".2" height=".2"
             patternUnits="userSpaceOnUse" patternTransform="scale(13.889,1)" >
        <path d="M.1,0h.1v.1h-.2v.1h.1z" fill="#999" opacity=".5" />
    </pattern>
</defs>
<rect width="100" height="1" fill="url(#pat_1X2KWl)" />
<path d="M1,.46V1h-1V.54z" fill="#680000" />
<path d="M0,0h1v1h-1z" fill="#680000" fill-opacity="1" />
<path d="M2,.46V1h-1V.54z" fill="#6F0304" />
<path d="M1,0h1v1h-1z" fill="#6F0304" fill-opacity="1" />
<path d="M3,.46V1h-1V.54z" fill="#760608" />
<path d="M2,0h1v1h-1z" fill="#760608" fill-opacity="1" />
<path d="M4,.46V1h-1V.54z" fill="#7E090D" />
<path d="M3,0h1v1h-1z" fill="#7E090D" fill-opacity="1" />
<path d="M5,.46V1h-1V.54z" fill="#850C11" />
<path d="M4,0h1v1h-1z" fill="#850C11" fill-opacity="1" />
<path d="M6,.46V1h-1V.54z" fill="#8C0F15" />
<path d="M5,0h1v1h-1z" fill="#8C0F15" fill-opacity="1" />
<path d="M7,.46V1h-1V.54z" fill="#941219" />
<path d="M6,0h1v1h-1z" fill="#941219" fill-opacity="1" />
<path d="M8,.46V1h-1V.54z" fill="#9B161D" />
<path d="M7,0h1v1h-1z" fill="#9B161D" fill-opacity="1" />
<path d="M9,.46V1h-1V.54z" fill="#A21922" />
<path d="M8,0h1v1h-1z" fill="#A21922" fill-opacity="1" />
<path d="M10,.46V1h-1V.54z" fill="#AA1C26" />
<path d="M9,0h1v1h-1z" fill="#AA1C26" fill-opacity="1" />
<path d="M11,.46V1h-1V.54z" fill="#B11F2A" />
<path d="M10,0h1v1h-1z" fill="#B11F2A" fill-opacity="1" />
<path d="M12,.46V1h-1V.54z" fill="#B8222E" />
<path d="M11,0h1v1h-1z" fill="#B8222E" fill-opacity="1" />
<path d="M13,.46V1h-1V.54z" fill="#C02532" />
<path d="M12,0h1v1h-1z" fill="#C02532" fill-opacity="1" />
<path d="M14,.46V1h-1V.54z" fill="#C72836" />
<path d="M13,0h1v1h-1z" fill="#C72836" fill-opacity="1" />
<path d="M15,.46V1h-1V.54z" fill="#CE2B3B" />
<path d="M14,0h1v1h-1z" fill="#CE2B3B" fill-opacity="1" />
<path d="M16,.46V1h-1V.54z" fill="#D62E3F" />
<path d="M15,0h1v1h-1z" fill="#D62E3F" fill-opacity="1" />
<path d="M17,.46V1h-1V.54z" fill="#DD3143" />
<path d="M16,0h1v1h-1z" fill="#DD3143" fill-opacity="1" />
<path d="M18,.46V1h-1V.54z" fill="#E43447" />
<path d="M17,0h1v1h-1z" fill="#E43447" fill-opacity="1" />
<path d="M19,.46V1h-1V.54z" fill="#EC374B" />
<path d="M18,0h1v1h-1z" fill="#EC374B" fill-opacity="1" />
<path d="M20,.46V1h-1V.54z" fill="#F33B50" />
<path d="M19,0h1v1h-1z" fill="#F33B50" fill-opacity="1" />
<path d="M21,.46V1h-1V.54z" fill="#F93E54" />
<path d="M20,0h1v1h-1z" fill="#F93E54" fill-opacity="1" />
<path d="M22,.46V1h-1V.54z" fill="#F94459" />
<path d="M21,0h1v1h-1z" fill="#F94459" fill-opacity="1" />
<path d="M23,.46V1h-1V.54z" fill="#F94A5E" />
<path d="M22,0h1v1h-1z" fill="#F94A5E" fill-opacity="1" />
<path d="M24,.46V1h-1V.54z" fill="#F95063" />
<path d="M23,0h1v1h-1z" fill="#F95063" fill-opacity="1" />
<path d="M25,.46V1h-1V.54z" fill="#F95668" />
<path d="M24,0h1v1h-1z" fill="#F95668" fill-opacity="1" />
<path d="M26,.46V1h-1V.54z" fill="#F85D6D" />
<path d="M25,0h1v1h-1z" fill="#F85D6D" fill-opacity="1" />
<path d="M27,.46V1h-1V.54z" fill="#F86372" />
<path d="M26,0h1v1h-1z" fill="#F86372" fill-opacity="1" />
<path d="M28,.46V1h-1V.54z" fill="#F86977" />
<path d="M27,0h1v1h-1z" fill="#F86977" fill-opacity="1" />
<path d="M29,.46V1h-1V.54z" fill="#F86F7C" />
<path d="M28,0h1v1h-1z" fill="#F86F7C" fill-opacity="1" />
<path d="M30,.46V1h-1V.54z" fill="#F87581" />
<path d="M29,0h1v1h-1z" fill="#F87581" fill-opacity="1" />
<path d="M31,.46V1h-1V.54z" fill="#F87B86" />
<path d="M30,0h1v1h-1z" fill="#F87B86" fill-opacity="1" />
<path d="M32,.46V1h-1V.54z" fill="#F8818B" />
<path d="M31,0h1v1h-1z" fill="#F8818B" fill-opacity="1" />
<path d="M33,.46V1h-1V.54z" fill="#F78790" />
<path d="M32,0h1v1h-1z" fill="#F78790" fill-opacity="1" />
<path d="M34,.46V1h-1V.54z" fill="#F78D95" />
<path d="M33,0h1v1h-1z" fill="#F78D95" fill-opacity="1" />
<path d="M35,.46V1h-1V.54z" fill="#F7939A" />
<path d="M34,0h1v1h-1z" fill="#F7939A" fill-opacity="1" />
<path d="M36,.46V1h-1V.54z" fill="#F7999F" />
<path d="M35,0h1v1h-1z" fill="#F7999F" fill-opacity="1" />
<path d="M37,.46V1h-1V.54z" fill="#F79FA4" />
<path d="M36,0h1v1h-1z" fill="#F79FA4" fill-opacity="1" />
<path d="M38,.46V1h-1V.54z" fill="#F7A5A9" />
<path d="M37,0h1v1h-1z" fill="#F7A5A9" fill-opacity="1" />
<path d="M39,.46V1h-1V.54z" fill="#F7ABAE" />
<path d="M38,0h1v1h-1z" fill="#F7ABAE" fill-opacity="1" />
<path d="M40,.46V1h-1V.54z" fill="#F6B1B3" />
<path d="M39,0h1v1h-1z" fill="#F6B1B3" fill-opacity="1" />
<path d="M41,.46V1h-1V.54z" fill="#F6B7B8" />
<path d="M40,0h1v1h-1z" fill="#F6B7B8" fill-opacity="1" />
<path d="M42,.46V1h-1V.54z" fill="#F6BDBD" />
<path d="M41,0h1v1h-1z" fill="#F6BDBD" fill-opacity="1" />
<path d="M43,.46V1h-1V.54z" fill="#F6C4C2" />
<path d="M42,0h1v1h-1z" fill="#F6C4C2" fill-opacity="1" />
<path d="M44,.46V1h-1V.54z" fill="#F6CAC7" />
<path d="M43,0h1v1h-1z" fill="#F6CAC7" fill-opacity="1" />
<path d="M45,.46V1h-1V.54z" fill="#F6D0CC" />
<path d="M44,0h1v1h-1z" fill="#F6D0CC" fill-opacity="1" />
<path d="M46,.46V1h-1V.54z" fill="#F6D6D1" />
<path d="M45,0h1v1h-1z" fill="#F6D6D1" fill-opacity="1" />
<path d="M47,.46V1h-1V.54z" fill="#F5DCD6" />
<path d="M46,0h1v1h-1z" fill="#F5DCD6" fill-opacity="1" />
<path d="M48,.46V1h-1V.54z" fill="#F5E2DB" />
<path d="M47,0h1v1h-1z" fill="#F5E2DB" fill-opacity="1" />
<path d="M49,.46V1h-1V.54z" fill="#F5E8E0" />
<path d="M48,0h1v1h-1z" fill="#F5E8E0" fill-opacity="1" />
<path d="M50,.46V1h-1V.54z" fill="#F5EEE5" />
<path d="M49,0h1v1h-1z" fill="#F5EEE5" fill-opacity="1" />
<path d="M51,.46V1h-1V.54z" fill="#F3F0E8" />
<path d="M50,0h1v1h-1z" fill="#F3F0E8" fill-opacity="1" />
<path d="M52,.46V1h-1V.54z" fill="#EEEDE9" />
<path d="M51,0h1v1h-1z" fill="#EEEDE9" fill-opacity="1" />
<path d="M53,.46V1h-1V.54z" fill="#EAEAE9" />
<path d="M52,0h1v1h-1z" fill="#EAEAE9" fill-opacity="1" />
<path d="M54,.46V1h-1V.54z" fill="#E5E7EA" />
<path d="M53,0h1v1h-1z" fill="#E5E7EA" fill-opacity="1" />
<path d="M55,.46V1h-1V.54z" fill="#E1E5EB" />
<path d="M54,0h1v1h-1z" fill="#E1E5EB" fill-opacity="1" />
<path d="M56,.46V1h-1V.54z" fill="#DCE2EB" />
<path d="M55,0h1v1h-1z" fill="#DCE2EB" fill-opacity="1" />
<path d="M57,.46V1h-1V.54z" fill="#D8DFEC" />
<path d="M56,0h1v1h-1z" fill="#D8DFEC" fill-opacity="1" />
<path d="M58,.46V1h-1V.54z" fill="#D3DDEC" />
<path d="M57,0h1v1h-1z" fill="#D3DDEC" fill-opacity="1" />
<path d="M59,.46V1h-1V.54z" fill="#CFDAED" />
<path d="M58,0h1v1h-1z" fill="#CFDAED" fill-opacity="1" />
<path d="M60,.46V1h-1V.54z" fill="#CAD7ED" />
<path d="M59,0h1v1h-1z" fill="#CAD7ED" fill-opacity="1" />
<path d="M61,.46V1h-1V.54z" fill="#C5D4EE" />
<path d="M60,0h1v1h-1z" fill="#C5D4EE" fill-opacity="1" />
<path d="M62,.46V1h-1V.54z" fill="#C1D2EF" />
<path d="M61,0h1v1h-1z" fill="#C1D2EF" fill-opacity="1" />
<path d="M63,.46V1h-1V.54z" fill="#BCCFEF" />
<path d="M62,0h1v1h-1z" fill="#BCCFEF" fill-opacity="1" />
<path d="M64,.46V1h-1V.54z" fill="#B8CCF0" />
<path d="M63,0h1v1h-1z" fill="#B8CCF0" fill-opacity="1" />
<path d="M65,.46V1h-1V.54z" fill="#B3CAF0" />
<path d="M64,0h1v1h-1z" fill="#B3CAF0" fill-opacity="1" />
<path d="M66,.46V1h-1V.54z" fill="#AFC7F1" />
<path d="M65,0h1v1h-1z" fill="#AFC7F1" fill-opacity="1" />
<path d="M67,.46V1h-1V.54z" fill="#AAC4F2" />
<path d="M66,0h1v1h-1z" fill="#AAC4F2" fill-opacity="1" />
<path d="M68,.46V1h-1V.54z" fill="#A6C1F2" />
<path d="M67,0h1v1h-1z" fill="#A6C1F2" fill-opacity="1" />
<path d="M69,.46V1h-1V.54z" fill="#A1BFF3" />
<path d="M68,0h1v1h-1z" fill="#A1BFF3" fill-opacity="1" />
<path d="M70,.46V1h-1V.54z" fill="#9DBCF3" />
<path d="M69,0h1v1h-1z" fill="#9DBCF3" fill-opacity="1" />
<path d="M71,.46V1h-1V.54z" fill="#98B9F4" />
<path d="M70,0h1v1h-1z" fill="#98B9F4" fill-opacity="1" />
<path d="M72,.46V1h-1V.54z" fill="#94B6F4" />
<path d="M71,0h1v1h-1z" fill="#94B6F4" fill-opacity="1" />
<path d="M73,.46V1h-1V.54z" fill="#8FB4F5" />
<path d="M72,0h1v1h-1z" fill="#8FB4F5" fill-opacity="1" />
<path d="M74,.46V1h-1V.54z" fill="#8BB1F6" />
<path d="M73,0h1v1h-1z" fill="#8BB1F6" fill-opacity="1" />
<path d="M75,.46V1h-1V.54z" fill="#86AEF6" />
<path d="M74,0h1v1h-1z" fill="#86AEF6" fill-opacity="1" />
<path d="M76,.46V1h-1V.54z" fill="#82ACF7" />
<path d="M75,0h1v1h-1z" fill="#82ACF7" fill-opacity="1" />
<path d="M77,.46V1h-1V.54z" fill="#7DA9F7" />
<path d="M76,0h1v1h-1z" fill="#7DA9F7" fill-opacity="1" />
<path d="M78,.46V1h-1V.54z" fill="#78A6F8" />
<path d="M77,0h1v1h-1z" fill="#78A6F8" fill-opacity="1" />
<path d="M79,.46V1h-1V.54z" fill="#74A3F8" />
<path d="M78,0h1v1h-1z" fill="#74A3F8" fill-opacity="1" />
<path d="M80,.46V1h-1V.54z" fill="#6FA1F9" />
<path d="M79,0h1v1h-1z" fill="#6FA1F9" fill-opacity="1" />
<path d="M81,.46V1h-1V.54z" fill="#6A9BF4" />
<path d="M80,0h1v1h-1z" fill="#6A9BF4" fill-opacity="1" />
<path d="M82,.46V1h-1V.54z" fill="#6495ED" />
<path d="M81,0h1v1h-1z" fill="#6495ED" fill-opacity="1" />
<path d="M83,.46V1h-1V.54z" fill="#5F8FE7" />
<path d="M82,0h1v1h-1z" fill="#5F8FE7" fill-opacity="1" />
<path d="M84,.46V1h-1V.54z" fill="#5989E0" />
<path d="M83,0h1v1h-1z" fill="#5989E0" fill-opacity="1" />
<path d="M85,.46V1h-1V.54z" fill="#5483D9" />
<path d="M84,0h1v1h-1z" fill="#5483D9" fill-opacity="1" />
<path d="M86,.46V1h-1V.54z" fill="#4E7DD3" />
<path d="M85,0h1v1h-1z" fill="#4E7DD3" fill-opacity="1" />
<path d="M87,.46V1h-1V.54z" fill="#4977CC" />
<path d="M86,0h1v1h-1z" fill="#4977CC" fill-opacity="1" />
<path d="M88,.46V1h-1V.54z" fill="#4370C5" />
<path d="M87,0h1v1h-1z" fill="#4370C5" fill-opacity="1" />
<path d="M89,.46V1h-1V.54z" fill="#3D6ABF" />
<path d="M88,0h1v1h-1z" fill="#3D6ABF" fill-opacity="1" />
<path d="M90,.46V1h-1V.54z" fill="#3864B8" />
<path d="M89,0h1v1h-1z" fill="#3864B8" fill-opacity="1" />
<path d="M91,.46V1h-1V.54z" fill="#325EB1" />
<path d="M90,0h1v1h-1z" fill="#325EB1" fill-opacity="1" />
<path d="M92,.46V1h-1V.54z" fill="#2D58AB" />
<path d="M91,0h1v1h-1z" fill="#2D58AB" fill-opacity="1" />
<path d="M93,.46V1h-1V.54z" fill="#2752A4" />
<path d="M92,0h1v1h-1z" fill="#2752A4" fill-opacity="1" />
<path d="M94,.46V1h-1V.54z" fill="#214C9E" />
<path d="M93,0h1v1h-1z" fill="#214C9E" fill-opacity="1" />
<path d="M95,.46V1h-1V.54z" fill="#1C4697" />
<path d="M94,0h1v1h-1z" fill="#1C4697" fill-opacity="1" />
<path d="M96,.46V1h-1V.54z" fill="#164090" />
<path d="M95,0h1v1h-1z" fill="#164090" fill-opacity="1" />
<path d="M97,.46V1h-1V.54z" fill="#11398A" />
<path d="M96,0h1v1h-1z" fill="#11398A" fill-opacity="1" />
<path d="M98,.46V1h-1V.54z" fill="#0B3383" />
<path d="M97,0h1v1h-1z" fill="#0B3383" fill-opacity="1" />
<path d="M99,.46V1h-1V.54z" fill="#062D7C" />
<path d="M98,0h1v1h-1z" fill="#062D7C" fill-opacity="1" />
<path d="M100,.46V1h-1V.54z" fill="#002776" />
<path d="M99,0h1v1h-1z" fill="#002776" fill-opacity="1" />
</svg>