<?xml version="1.0" encoding="UTF-8"?>
<!DOCTYPE svg PUBLIC "-//W3C//DTD SVG 1.1//EN"
 "http://www.w3.org/Graphics/SVG/1.1/DTD/svg11.dtd">
<svg xmlns="http://www.w3.org/2000/svg" version="1.1"
     width="180mm" height="25mm" viewBox="0 0 100 1" stroke="none"
     preserveAspectRatio="none" shape-rendering="crispEdges">
<defs>
    <pattern id="pat_2Aw7ia" width=".2" height=".2"
             patternUnits="userSpaceOnUse" patternTransform="scale(13.889,1)" >
        <path d="M.1,0h.1v.1h-.2v.1h.1z" fill="#999" opacity=".5" />
    </pattern>
</defs>
<rect width="100" height="1" fill="url(#pat_2Aw7ia)" />
<path d="M1,.46V1h-1V.54z" fill="#FA9F42" />
<path d="M0,0h1v1h-1z" fill="#FA9F42" fill-opacity="1" />
<path d="M2,.46V1h-1V.54z" fill="#F59E43" />
<path d="M1,0h1v1h-1z" fill="#F59E43" fill-opacity="1" />
<path d="M3,.46V1h-1V.54z" fill="#F09D44" />
<path d="M2,0h1v1h-1z" fill="#F09D44" fill-opacity="1" />
<path d="M4,.46V1h-1V.54z" fill="#EB9D45" />
<path d="M3,0h1v1h-1z" fill="#EB9D45" fill-opacity="1" />
<path d="M5,.46V1h-1V.54z" fill="#E69C46" />
<path d="M4,0h1v1h-1z" fill="#E69C46" fill-opacity="1" />
<path d="M6,.46V1h-1V.54z" fill="#E19B47" />
<path d="M5,0h1v1h-1z" fill="#E19B47" fill-opacity="1" />
<path d="M7,.46V1h-1V.54z" fill="#DC9A49" />
<path d="M6,0h1v1h-1z" fill="#DC9A49" fill-opacity="1" />
<path d="M8,.46V1h-1V.54z" fill="#D7994A" />
<path d="M7,0h1v1h-1z" fill="#D7994A" fill-opacity="1" />
<path d="M9,.46V1h-1V.54z" fill="#D2994B" />
<path d="M8,0h1v1h-1z" fill="#D2994B" fill-opacity="1" />
<path d="M10,.46V1h-1V.54z" fill="#CD984C" />
<path d="M9,0h1v1h-1z" fill="#CD984C" fill-opacity="1" />
<path d="M11,.46V1h-1V.54z" fill="#C7974D" />
<path d="M10,0h1v1h-1z" fill="#C7974D" fill-opacity="1" />
<path d="M12,.46V1h-1V.54z" fill="#C2964E" />
<path d="M11,0h1v1h-1z" fill="#C2964E" fill-opacity="1" />
<path d="M13,.46V1h-1V.54z" fill="#BD964F" />
<path d="M12,0h1v1h-1z" fill="#BD964F" fill-opacity="1" />
<path d="M14,.46V1h-1V.54z" fill="#B89550" />
<path d="M13,0h1v1h-1z" fill="#B89550" fill-opacity="1" />
<path d="M15,.46V1h-1V.54z" fill="#B39451" />
<path d="M14,0h1v1h-1z" fill="#B39451" fill-opacity="1" />
<path d="M16,.46V1h-1V.54z" fill="#AE9352" />
<path d="M15,0h1v1h-1z" fill="#AE9352" fill-opacity="1" />
<path d="M17,.46V1h-1V.54z" fill="#A99253" />
<path d="M16,0h1v1h-1z" fill="#A99253" fill-opacity="1" />
<path d="M18,.46V1h-1V.54z" fill="#A49255" />
<path d="M17,0h1v1h-1z" fill="#A49255" fill-opacity="1" />
<path d="M19,.46V1h-1V.54z" fill="#9F9156" />
<path d="M18,0h1v1h-1z" fill="#9F9156" fill-opacity="1" />
<path d="M20,.46V1h-1V.54z" fill="#9A9057" />
<path d="M19,0h1v1h-1z" fill="#9A9057" fill-opacity="1" />
<path d="M21,.46V1h-1V.54z" fill="#958F58" />
<path d="M20,0h1v1h-1z" fill="#958F58" fill-opacity="1" />
<path d="M22,.46V1h-1V.54z" fill="#908E59" />
<path d="M21,0h1v1h-1z" fill="#908E59" fill-opacity="1" />
<path d="M23,.46V1h-1V.54z" fill="#8B8E5A" />
<path d="M22,0h1v1h-1z" fill="#8B8E5A" fill-opacity="1" />
<path d="M24,.46V1h-1V.54z" fill="#868D5B" />
<path d="M23,0h1v1h-1z" fill="#868D5B" fill-opacity="1" />
<path d="M25,.46V1h-1V.54z" fill="#818C5C" />
<path d="M24,0h1v1h-1z" fill="#818C5C" fill-opacity="1" />
<path d="M26,.46V1h-1V.54z" fill="#7C8B5D" />
<path d="M25,0h1v1h-1z" fill="#7C8B5D" fill-opacity="1" />
<path d="M27,.46V1h-1V.54z" fill="#778B5E" />
<path d="M26,0h1v1h-1z" fill="#778B5E" fill-opacity="1" />
<path d="M28,.46V1h-1V.54z" fill="#728A5F" />
<path d="M27,0h1v1h-1z" fill="#728A5F" fill-opacity="1" />
<path d="M29,.46V1h-1V.54z" fill="#6D8961" />
<path d="M28,0h1v1h-1z" fill="#6D8961" fill-opacity="1" />
<path d="M30,.46V1h-1V.54z" fill="#688862" />
<path d="M29,0h1v1h-1z" fill="#688862" fill-opacity="1" />
<path d="M31,.46V1h-1V.54z" fill="#628763" />
<path d="M30,0h1v1h-1z" fill="#628763" fill-opacity="1" />
<path d="M32,.46V1h-1V.54z" fill="#5D8764" />
<path d="M31,0h1v1h-1z" fill="#5D8764" fill-opacity="1" />
<path d="M33,.46V1h-1V.54z" fill="#588665" />
<path d="M32,0h1v1h-1z" fill="#588665" fill-opacity="1" />
<path d="M34,.46V1h-1V.54z" fill="#538566" />
<path d="M33,0h1v1h-1z" fill="#538566" fill-opacity="1" />
<path d="M35,.46V1h-1V.54z" fill="#4E8467" />
<path d="M34,0h1v1h-1z" fill="#4E8467" fill-opacity="1" />
<path d="M36,.46V1h-1V.54z" fill="#498368" />
<path d="M35,0h1v1h-1z" fill="#498368" fill-opacity="1" />
<path d="M37,.46V1h-1V.54z" fill="#448369" />
<path d="M36,0h1v1h-1z" fill="#448369" fill-opacity="1" />
<path d="M38,.46V1h-1V.54z" fill="#3F826A" />
<path d="M37,0h1v1h-1z" fill="#3F826A" fill-opacity="1" />
<path d="M39,.46V1h-1V.54z" fill="#3A816B" />
<path d="M38,0h1v1h-1z" fill="#3A816B" fill-opacity="1" />
<path d="M40,.46V1h-1V.54z" fill="#35806D" />
<path d="M39,0h1v1h-1z" fill="#35806D" fill-opacity="1" />
<path d="M41,.46V1h-1V.54z" fill="#307F6E" />
<path d="M40,0h1v1h-1z" fill="#307F6E" fill-opacity="1" />
<path d="M42,.46V1h-1V.54z" fill="#2B7F6F" />
<path d="M41,0h1v1h-1z" fill="#2B7F6F" fill-opacity="1" />
<path d="M43,.46V1h-1V.54z" fill="#267E70" />
<path d="M42,0h1v1h-1z" fill="#267E70" fill-opacity="1" />
<path d="M44,.46V1h-1V.54z" fill="#217D71" />
<path d="M43,0h1v1h-1z" fill="#217D71" fill-opacity="1" />
<path d="M45,.46V1h-1V.54z" fill="#1C7C72" />
<path d="M44,0h1v1h-1z" fill="#1C7C72" fill-opacity="1" />
<path d="M46,.46V1h-1V.54z" fill="#177C73" />
<path d="M45,0h1v1h-1z" fill="#177C73" fill-opacity="1" />
<path d="M47,.46V1h-1V.54z" fill="#127B74" />
<path d="M46,0h1v1h-1z" fill="#127B74" fill-opacity="1" />
<path d="M48,.46V1h-1V.54z" fill="#0D7A75" />
<path d="M47,0h1v1h-1z" fill="#0D7A75" fill-opacity="1" />
<path d="M49,.46V1h-1V.54z" fill="#087976" />
<path d="M48,0h1v1h-1z" fill="#087976" fill-opacity="1" />
<path d="M50,.46V1h-1V.54z" fill="#037877" />
<path d="M49,0h1v1h-1z" fill="#037877" fill-opacity="1" />
<path d="M51,.46V1h-1V.54z" fill="#007777" />
<path d="M50,0h1v1h-1z" fill="#007777" fill-opacity="1" />
<path d="M52,.46V1h-1V.54z" fill="#007476" />
<path d="M51,0h1v1h-1z" fill="#007476" fill-opacity="1" />
<path d="M53,.46V1h-1V.54z" fill="#007174" />
<path d="M52,0h1v1h-1z" fill="#007174" fill-opacity="1" />
<path d="M54,.46V1h-1V.54z" fill="#006F73" />
<path d="M53,0h1v1h-1z" fill="#006F73" fill-opacity="1" />
<path d="M55,.46V1h-1V.54z" fill="#006C71" />
<path d="M54,0h1v1h-1z" fill="#006C71" fill-opacity="1" />
<path d="M56,.46V1h-1V.54z" fill="#006970" />
<path d="M55,0h1v1h-1z" fill="#006970" fill-opacity="1" />
<path d="M57,.46V1h-1V.54z" fill="#01676E" />
<path d="M56,0h1v1h-1z" fill="#01676E" fill-opacity="1" />
<path d="M58,.46V1h-1V.54z" fill="#01646D" />
<path d="M57,0h1v1h-1z" fill="#01646D" fill-opacity="1" />
<path d="M59,.46V1h-1V.54z" fill="#01616B" />
<path d="M58,0h1v1h-1z" fill="#01616B" fill-opacity="1" />
<path d="M60,.46V1h-1V.54z" fill="#015F6A" />
<path d="M59,0h1v1h-1z" fill="#015F6A" fill-opacity="1" />
<path d="M61,.46V1h-1V.54z" fill="#015C68" />
<path d="M60,0h1v1h-1z" fill="#015C68" fill-opacity="1" />
<path d="M62,.46V1h-1V.54z" fill="#015967" />
<path d="M61,0h1v1h-1z" fill="#015967" fill-opacity="1" />
<path d="M63,.46V1h-1V.54z" fill="#015765" />
<path d="M62,0h1v1h-1z" fill="#015765" fill-opacity="1" />
<path d="M64,.46V1h-1V.54z" fill="#015464" />
<path d="M63,0h1v1h-1z" fill="#015464" fill-opacity="1" />
<path d="M65,.46V1h-1V.54z" fill="#015162" />
<path d="M64,0h1v1h-1z" fill="#015162" fill-opacity="1" />
<path d="M66,.46V1h-1V.54z" fill="#014F61" />
<path d="M65,0h1v1h-1z" fill="#014F61" fill-opacity="1" />
<path d="M67,.46V1h-1V.54z" fill="#014C5F" />
<path d="M66,0h1v1h-1z" fill="#014C5F" fill-opacity="1" />
<path d="M68,.46V1h-1V.54z" fill="#01495E" />
<path d="M67,0h1v1h-1z" fill="#01495E" fill-opacity="1" />
<path d="M69,.46V1h-1V.54z" fill="#01475C" />
<path d="M68,0h1v1h-1z" fill="#01475C" fill-opacity="1" />
<path d="M70,.46V1h-1V.54z" fill="#02445B" />
<path d="M69,0h1v1h-1z" fill="#02445B" fill-opacity="1" />
<path d="M71,.46V1h-1V.54z" fill="#024159" />
<path d="M70,0h1v1h-1z" fill="#024159" fill-opacity="1" />
<path d="M72,.46V1h-1V.54z" fill="#023F58" />
<path d="M71,0h1v1h-1z" fill="#023F58" fill-opacity="1" />
<path d="M73,.46V1h-1V.54z" fill="#023C56" />
<path d="M72,0h1v1h-1z" fill="#023C56" fill-opacity="1" />
<path d="M74,.46V1h-1V.54z" fill="#023955" />
<path d="M73,0h1v1h-1z" fill="#023955" fill-opacity="1" />
<path d="M75,.46V1h-1V.54z" fill="#023753" />
<path d="M74,0h1v1h-1z" fill="#023753" fill-opacity="1" />
<path d="M76,.46V1h-1V.54z" fill="#033452" />
<path d="M75,0h1v1h-1z" fill="#033452" fill-opacity="1" />
<path d="M77,.46V1h-1V.54z" fill="#053251" />
<path d="M76,0h1v1h-1z" fill="#053251" fill-opacity="1" />
<path d="M78,.46V1h-1V.54z" fill="#063050" />
<path d="M77,0h1v1h-1z" fill="#063050" fill-opacity="1" />
<path d="M79,.46V1h-1V.54z" fill="#082E4F" />
<path d="M78,0h1v1h-1z" fill="#082E4F" fill-opacity="1" />
<path d="M80,.46V1h-1V.54z" fill="#092C4E" />
<path d="M79,0h1v1h-1z" fill="#092C4E" fill-opacity="1" />
<path d="M81,.46V1h-1V.54z" fill="#0B2A4C" />
<path d="M80,0h1v1h-1z" fill="#0B2A4C" fill-opacity="1" />
<path d="M82,.46V1h-1V.54z" fill="#0C284B" />
<path d="M81,0h1v1h-1z" fill="#0C284B" fill-opacity="1" />
<path d="M83,.46V1h-1V.54z" fill="#0E254A" />
<path d="M82,0h1v1h-1z" fill="#0E254A" fill-opacity="1" />
<path d="M84,.46V1h-1V.54z" fill="#0F2349" />
<path d="M83,0h1v1h-1z" fill="#0F2349" fill-opacity="1" />
<path d="M85,.46V1h-1V.54z" fill="#112148" />
<path d="M84,0h1v1h-1z" fill="#112148" fill-opacity="1" />
<path d="M86,.46V1h-1V.54z" fill="#131F47" />
<path d="M85,0h1v1h-1z" fill="#131F47" fill-opacity="1" />
<path d="M87,.46V1h-1V.54z" fill="#141D46" />
<path d="M86,0h1v1h-1z" fill="#141D46" fill-opacity="1" />
<path d="M88,.46V1h-1V.54z" fill="#161B45" />
<path d="M87,0h1v1h-1z" fill="#161B45" fill-opacity="1" />
<path d="M89,.46V1h-1V.54z" fill="#171943" />
<path d="M88,0h1v1h-1z" fill="#171943" fill-opacity="1" />
<path d="M90,.46V1h-1V.54z" fill="#191642" />
<path d="M89,0h1v1h-1z" fill="#191642" fill-opacity="1" />
<path d="M91,.46V1h-1V.54z" fill="#1A1441" />
<path d="M90,0h1v1h-1z" fill="#1A1441" fill-opacity="1" />
<path d="M92,.46V1h-1V.54z" fill="#1C1240" />
<path d="M91,0h1v1h-1z" fill="#1C1240" fill-opacity="1" />
<path d="M93,.46V1h-1V.54z" fill="#1D103F" />
<path d="M92,0h1v1h-1z" fill="#1D103F" fill-opacity="1" />
<path d="M94,.46V1h-1V.54z" fill="#1F0E3E" />
<path d="M93,0h1v1h-1z" fill="#1F0E3E" fill-opacity="1" />
<path d="M95,.46V1h-1V.54z" fill="#200C3D" />
<path d="M94,0h1v1h-1z" fill="#200C3D" fill-opacity="1" />
<path d="M96,.46V1h-1V.54z" fill="#220A3C" />
<path d="M95,0h1v1h-1z" fill="#220A3C" fill-opacity="1" />
<path d="M97,.46V1h-1V.54z" fill="#23073A" />
<path d="M96,0h1v1h-1z" fill="#23073A" fill-opacity="1" />
<path d="M98,.46V1h-1V.54z" fill="#250539" />
<path d="M97,0h1v1h-1z" fill="#250539" fill-opacity="1" />
<path d="M99,.46V1h-1V.54z" fill="#260338" />
<path d="M98,0h1v1h-1z" fill="#260338" fill-opacity="1" />
<path d="M100,.46V1h-1V.54z" fill="#280137" />
<path d="M99,0h1v1h-1z" fill="#280137" fill-opacity="1" />
</svg>