<?xml version="1.0" encoding="UTF-8"?>
<!DOCTYPE svg PUBLIC "-//W3C//DTD SVG 1.1//EN"
 "http://www.w3.org/Graphics/SVG/1.1/DTD/svg11.dtd">
<svg xmlns="http://www.w3.org/2000/svg" version="1.1"
     width="180mm" height="25mm" viewBox="0 0 100 1" stroke="none"
     preserveAspectRatio="none" shape-rendering="crispEdges">
<defs>
    <pattern id="pat_1th2jS" width=".2" height=".2"
             patternUnits="userSpaceOnUse" patternTransform="scale(13.889,1)" >
        <path d="M.1,0h.1v.1h-.2v.1h.1z" fill="#999" opacity=".5" />
    </pattern>
</defs>
<rect width="100" height="1" fill="url(#pat_1th2jS)" />
<path d="M1,.46V1h-1V.54z" fill="#FA9F42" />
<path d="M0,0h1v1h-1z" fill="#FA9F42" fill-opacity="1" />
<path d="M2,.46V1h-1V.54z" fill="#F49E43" />
<path d="M1,0h1v1h-1z" fill="#F49E43" fill-opacity="1" />
<path d="M3,.46V1h-1V.54z" fill="#EF9D44" />
<path d="M2,0h1v1h-1z" fill="#EF9D44" fill-opacity="1" />
<path d="M4,.46V1h-1V.54z" fill="#E99C46" />
<path d="M3,0h1v1h-1z" fill="#E99C46" fill-opacity="1" />
<path d="M5,.46V1h-1V.54z" fill="#E49C47" />
<path d="M4,0h1v1h-1z" fill="#E49C47" fill-opacity="1" />
<path d="M6,.46V1h-1V.54z" fill="#DE9B48" />
<path d="M5,0h1v1h-1z" fill="#DE9B48" fill-opacity="1" />
<path d="M7,.46V1h-1V.54z" fill="#D99A49" />
<path d="M6,0h1v1h-1z" fill="#D99A49" fill-opacity="1" />
<path d="M8,.46V1h-1V.54z" fill="#D3994A" />
<path d="M7,0h1v1h-1z" fill="#D3994A" fill-opacity="1" />
<path d="M9,.46V1h-1V.54z" fill="#CE984C" />
<path d="M8,0h1v1h-1z" fill="#CE984C" fill-opacity="1" />
<path d="M10,.46V1h-1V.54z" fill="#C8974D" />
<path d="M9,0h1v1h-1z" fill="#C8974D" fill-opacity="1" />
<path d="M11,.46V1h-1V.54z" fill="#C3964E" />
<path d="M10,0h1v1h-1z" fill="#C3964E" fill-opacity="1" />
<path d="M12,.46V1h-1V.54z" fill="#BD964F" />
<path d="M11,0h1v1h-1z" fill="#BD964F" fill-opacity="1" />
<path d="M13,.46V1h-1V.54z" fill="#B89550" />
<path d="M12,0h1v1h-1z" fill="#B89550" fill-opacity="1" />
<path d="M14,.46V1h-1V.54z" fill="#B29452" />
<path d="M13,0h1v1h-1z" fill="#B29452" fill-opacity="1" />
<path d="M15,.46V1h-1V.54z" fill="#AD9353" />
<path d="M14,0h1v1h-1z" fill="#AD9353" fill-opacity="1" />
<path d="M16,.46V1h-1V.54z" fill="#A79254" />
<path d="M15,0h1v1h-1z" fill="#A79254" fill-opacity="1" />
<path d="M17,.46V1h-1V.54z" fill="#A29155" />
<path d="M16,0h1v1h-1z" fill="#A29155" fill-opacity="1" />
<path d="M18,.46V1h-1V.54z" fill="#9C9056" />
<path d="M17,0h1v1h-1z" fill="#9C9056" fill-opacity="1" />
<path d="M19,.46V1h-1V.54z" fill="#978F57" />
<path d="M18,0h1v1h-1z" fill="#978F57" fill-opacity="1" />
<path d="M20,.46V1h-1V.54z" fill="#918F59" />
<path d="M19,0h1v1h-1z" fill="#918F59" fill-opacity="1" />
<path d="M21,.46V1h-1V.54z" fill="#8C8E5A" />
<path d="M20,0h1v1h-1z" fill="#8C8E5A" fill-opacity="1" />
<path d="M22,.46V1h-1V.54z" fill="#868D5B" />
<path d="M21,0h1v1h-1z" fill="#868D5B" fill-opacity="1" />
<path d="M23,.46V1h-1V.54z" fill="#818C5C" />
<path d="M22,0h1v1h-1z" fill="#818C5C" fill-opacity="1" />
<path d="M24,.46V1h-1V.54z" fill="#7B8B5D" />
<path d="M23,0h1v1h-1z" fill="#7B8B5D" fill-opacity="1" />
<path d="M25,.46V1h-1V.54z" fill="#758A5F" />
<path d="M24,0h1v1h-1z" fill="#758A5F" fill-opacity="1" />
<path d="M26,.46V1h-1V.54z" fill="#708960" />
<path d="M25,0h1v1h-1z" fill="#708960" fill-opacity="1" />
<path d="M27,.46V1h-1V.54z" fill="#6A8961" />
<path d="M26,0h1v1h-1z" fill="#6A8961" fill-opacity="1" />
<path d="M28,.46V1h-1V.54z" fill="#658862" />
<path d="M27,0h1v1h-1z" fill="#658862" fill-opacity="1" />
<path d="M29,.46V1h-1V.54z" fill="#5F8763" />
<path d="M28,0h1v1h-1z" fill="#5F8763" fill-opacity="1" />
<path d="M30,.46V1h-1V.54z" fill="#5A8665" />
<path d="M29,0h1v1h-1z" fill="#5A8665" fill-opacity="1" />
<path d="M31,.46V1h-1V.54z" fill="#548566" />
<path d="M30,0h1v1h-1z" fill="#548566" fill-opacity="1" />
<path d="M32,.46V1h-1V.54z" fill="#4F8467" />
<path d="M31,0h1v1h-1z" fill="#4F8467" fill-opacity="1" />
<path d="M33,.46V1h-1V.54z" fill="#498368" />
<path d="M32,0h1v1h-1z" fill="#498368" fill-opacity="1" />
<path d="M34,.46V1h-1V.54z" fill="#448369" />
<path d="M33,0h1v1h-1z" fill="#448369" fill-opacity="1" />
<path d="M35,.46V1h-1V.54z" fill="#3E826B" />
<path d="M34,0h1v1h-1z" fill="#3E826B" fill-opacity="1" />
<path d="M36,.46V1h-1V.54z" fill="#39816C" />
<path d="M35,0h1v1h-1z" fill="#39816C" fill-opacity="1" />
<path d="M37,.46V1h-1V.54z" fill="#33806D" />
<path d="M36,0h1v1h-1z" fill="#33806D" fill-opacity="1" />
<path d="M38,.46V1h-1V.54z" fill="#2E7F6E" />
<path d="M37,0h1v1h-1z" fill="#2E7F6E" fill-opacity="1" />
<path d="M39,.46V1h-1V.54z" fill="#287E6F" />
<path d="M38,0h1v1h-1z" fill="#287E6F" fill-opacity="1" />
<path d="M40,.46V1h-1V.54z" fill="#237D71" />
<path d="M39,0h1v1h-1z" fill="#237D71" fill-opacity="1" />
<path d="M41,.46V1h-1V.54z" fill="#1D7D72" />
<path d="M40,0h1v1h-1z" fill="#1D7D72" fill-opacity="1" />
<path d="M42,.46V1h-1V.54z" fill="#187C73" />
<path d="M41,0h1v1h-1z" fill="#187C73" fill-opacity="1" />
<path d="M43,.46V1h-1V.54z" fill="#127B74" />
<path d="M42,0h1v1h-1z" fill="#127B74" fill-opacity="1" />
<path d="M44,.46V1h-1V.54z" fill="#0D7A75" />
<path d="M43,0h1v1h-1z" fill="#0D7A75" fill-opacity="1" />
<path d="M45,.46V1h-1V.54z" fill="#077976" />
<path d="M44,0h1v1h-1z" fill="#077976" fill-opacity="1" />
<path d="M46,.46V1h-1V.54z" fill="#017878" />
<path d="M45,0h1v1h-1z" fill="#017878" fill-opacity="1" />
<path d="M47,.46V1h-1V.54z" fill="#007777" />
<path d="M46,0h1v1h-1z" fill="#007777" fill-opacity="1" />
<path d="M48,.46V1h-1V.54z" fill="#007576" />
<path d="M47,0h1v1h-1z" fill="#007576" fill-opacity="1" />
<path d="M49,.46V1h-1V.54z" fill="#007375" />
<path d="M48,0h1v1h-1z" fill="#007375" fill-opacity="1" />
<path d="M50,.46V1h-1V.54z" fill="#007174" />
<path d="M49,0h1v1h-1z" fill="#007174" fill-opacity="1" />
<path d="M51,.46V1h-1V.54z" fill="#006F73" />
<path d="M50,0h1v1h-1z" fill="#006F73" fill-opacity="1" />
<path d="M52,.46V1h-1V.54z" fill="#006D72" />
<path d="M51,0h1v1h-1z" fill="#006D72" fill-opacity="1" />
<path d="M53,.46V1h-1V.54z" fill="#006B71" />
<path d="M52,0h1v1h-1z" fill="#006B71" fill-opacity="1" />
<path d="M54,.46V1h-1V.54z" fill="#006970" />
<path d="M53,0h1v1h-1z" fill="#006970" fill-opacity="1" />
<path d="M55,.46V1h-1V.54z" fill="#01676F" />
<path d="M54,0h1v1h-1z" fill="#01676F" fill-opacity="1" />
<path d="M56,.46V1h-1V.54z" fill="#01666E" />
<path d="M55,0h1v1h-1z" fill="#01666E" fill-opacity="1" />
<path d="M57,.46V1h-1V.54z" fill="#01646D" />
<path d="M56,0h1v1h-1z" fill="#01646D" fill-opacity="1" />
<path d="M58,.46V1h-1V.54z" fill="#01626C" />
<path d="M57,0h1v1h-1z" fill="#01626C" fill-opacity="1" />
<path d="M59,.46V1h-1V.54z" fill="#01606A" />
<path d="M58,0h1v1h-1z" fill="#01606A" fill-opacity="1" />
<path d="M60,.46V1h-1V.54z" fill="#015E69" />
<path d="M59,0h1v1h-1z" fill="#015E69" fill-opacity="1" />
<path d="M61,.46V1h-1V.54z" fill="#015C68" />
<path d="M60,0h1v1h-1z" fill="#015C68" fill-opacity="1" />
<path d="M62,.46V1h-1V.54z" fill="#015A67" />
<path d="M61,0h1v1h-1z" fill="#015A67" fill-opacity="1" />
<path d="M63,.46V1h-1V.54z" fill="#015866" />
<path d="M62,0h1v1h-1z" fill="#015866" fill-opacity="1" />
<path d="M64,.46V1h-1V.54z" fill="#015665" />
<path d="M63,0h1v1h-1z" fill="#015665" fill-opacity="1" />
<path d="M65,.46V1h-1V.54z" fill="#015564" />
<path d="M64,0h1v1h-1z" fill="#015564" fill-opacity="1" />
<path d="M66,.46V1h-1V.54z" fill="#015363" />
<path d="M65,0h1v1h-1z" fill="#015363" fill-opacity="1" />
<path d="M67,.46V1h-1V.54z" fill="#015162" />
<path d="M66,0h1v1h-1z" fill="#015162" fill-opacity="1" />
<path d="M68,.46V1h-1V.54z" fill="#014F61" />
<path d="M67,0h1v1h-1z" fill="#014F61" fill-opacity="1" />
<path d="M69,.46V1h-1V.54z" fill="#014D60" />
<path d="M68,0h1v1h-1z" fill="#014D60" fill-opacity="1" />
<path d="M70,.46V1h-1V.54z" fill="#014B5F" />
<path d="M69,0h1v1h-1z" fill="#014B5F" fill-opacity="1" />
<path d="M71,.46V1h-1V.54z" fill="#01495E" />
<path d="M70,0h1v1h-1z" fill="#01495E" fill-opacity="1" />
<path d="M72,.46V1h-1V.54z" fill="#01475D" />
<path d="M71,0h1v1h-1z" fill="#01475D" fill-opacity="1" />
<path d="M73,.46V1h-1V.54z" fill="#02455C" />
<path d="M72,0h1v1h-1z" fill="#02455C" fill-opacity="1" />
<path d="M74,.46V1h-1V.54z" fill="#02435B" />
<path d="M73,0h1v1h-1z" fill="#02435B" fill-opacity="1" />
<path d="M75,.46V1h-1V.54z" fill="#02425A" />
<path d="M74,0h1v1h-1z" fill="#02425A" fill-opacity="1" />
<path d="M76,.46V1h-1V.54z" fill="#024058" />
<path d="M75,0h1v1h-1z" fill="#024058" fill-opacity="1" />
<path d="M77,.46V1h-1V.54z" fill="#023E57" />
<path d="M76,0h1v1h-1z" fill="#023E57" fill-opacity="1" />
<path d="M78,.46V1h-1V.54z" fill="#023C56" />
<path d="M77,0h1v1h-1z" fill="#023C56" fill-opacity="1" />
<path d="M79,.46V1h-1V.54z" fill="#023A55" />
<path d="M78,0h1v1h-1z" fill="#023A55" fill-opacity="1" />
<path d="M80,.46V1h-1V.54z" fill="#023854" />
<path d="M79,0h1v1h-1z" fill="#023854" fill-opacity="1" />
<path d="M81,.46V1h-1V.54z" fill="#023653" />
<path d="M80,0h1v1h-1z" fill="#023653" fill-opacity="1" />
<path d="M82,.46V1h-1V.54z" fill="#043452" />
<path d="M81,0h1v1h-1z" fill="#043452" fill-opacity="1" />
<path d="M83,.46V1h-1V.54z" fill="#063150" />
<path d="M82,0h1v1h-1z" fill="#063150" fill-opacity="1" />
<path d="M84,.46V1h-1V.54z" fill="#082E4F" />
<path d="M83,0h1v1h-1z" fill="#082E4F" fill-opacity="1" />
<path d="M85,.46V1h-1V.54z" fill="#0A2B4D" />
<path d="M84,0h1v1h-1z" fill="#0A2B4D" fill-opacity="1" />
<path d="M86,.46V1h-1V.54z" fill="#0C284C" />
<path d="M85,0h1v1h-1z" fill="#0C284C" fill-opacity="1" />
<path d="M87,.46V1h-1V.54z" fill="#0E264A" />
<path d="M86,0h1v1h-1z" fill="#0E264A" fill-opacity="1" />
<path d="M88,.46V1h-1V.54z" fill="#102349" />
<path d="M87,0h1v1h-1z" fill="#102349" fill-opacity="1" />
<path d="M89,.46V1h-1V.54z" fill="#122047" />
<path d="M88,0h1v1h-1z" fill="#122047" fill-opacity="1" />
<path d="M90,.46V1h-1V.54z" fill="#141D46" />
<path d="M89,0h1v1h-1z" fill="#141D46" fill-opacity="1" />
<path d="M91,.46V1h-1V.54z" fill="#161A44" />
<path d="M90,0h1v1h-1z" fill="#161A44" fill-opacity="1" />
<path d="M92,.46V1h-1V.54z" fill="#181743" />
<path d="M91,0h1v1h-1z" fill="#181743" fill-opacity="1" />
<path d="M93,.46V1h-1V.54z" fill="#1A1541" />
<path d="M92,0h1v1h-1z" fill="#1A1541" fill-opacity="1" />
<path d="M94,.46V1h-1V.54z" fill="#1C1240" />
<path d="M93,0h1v1h-1z" fill="#1C1240" fill-opacity="1" />
<path d="M95,.46V1h-1V.54z" fill="#1E0F3E" />
<path d="M94,0h1v1h-1z" fill="#1E0F3E" fill-opacity="1" />
<path d="M96,.46V1h-1V.54z" fill="#200C3D" />
<path d="M95,0h1v1h-1z" fill="#200C3D" fill-opacity="1" />
<path d="M97,.46V1h-1V.54z" fill="#22093B" />
<path d="M96,0h1v1h-1z" fill="#22093B" fill-opacity="1" />
<path d="M98,.46V1h-1V.54z" fill="#24073A" />
<path d="M97,0h1v1h-1z" fill="#24073A" fill-opacity="1" />
<path d="M99,.46V1h-1V.54z" fill="#260438" />
<path d="M98,0h1v1h-1z" fill="#260438" fill-opacity="1" />
<path d="M100,.46V1h-1V.54z" fill="#280137" />
<path d="M99,0h1v1h-1z" fill="#280137" fill-opacity="1" />
</svg>