<?xml version="1.0" encoding="UTF-8"?>
<!DOCTYPE svg PUBLIC "-//W3C//DTD SVG 1.1//EN"
 "http://www.w3.org/Graphics/SVG/1.1/DTD/svg11.dtd">
<svg xmlns="http://www.w3.org/2000/svg" version="1.1"
     width="180mm" height="25mm" viewBox="0 0 100 1" stroke="none"
     preserveAspectRatio="none" shape-rendering="crispEdges">
<defs>
    <pattern id="pat_1ZVvMg" width=".2" height=".2"
             patternUnits="userSpaceOnUse" patternTransform="scale(13.889,1)" >
        <path d="M.1,0h.1v.1h-.2v.1h.1z" fill="#999" opacity=".5" />
    </pattern>
</defs>
<rect width="100" height="1" fill="url(#pat_1ZVvMg)" />
<path d="M1,.46V1h-1V.54z" fill="#FB294C" />
<path d="M0,0h1v1h-1z" fill="#FB294C" fill-opacity="1" />
<path d="M2,.46V1h-1V.54z" fill="#FA2C49" />
<path d="M1,0h1v1h-1z" fill="#FA2C49" fill-opacity="1" />
<path d="M3,.46V1h-1V.54z" fill="#FA2E46" />
<path d="M2,0h1v1h-1z" fill="#FA2E46" fill-opacity="1" />
<path d="M4,.46V1h-1V.54z" fill="#F93143" />
<path d="M3,0h1v1h-1z" fill="#F93143" fill-opacity="1" />
<path d="M5,.46V1h-1V.54z" fill="#F93440" />
<path d="M4,0h1v1h-1z" fill="#F93440" fill-opacity="1" />
<path d="M6,.46V1h-1V.54z" fill="#F8363D" />
<path d="M5,0h1v1h-1z" fill="#F8363D" fill-opacity="1" />
<path d="M7,.46V1h-1V.54z" fill="#F7393A" />
<path d="M6,0h1v1h-1z" fill="#F7393A" fill-opacity="1" />
<path d="M8,.46V1h-1V.54z" fill="#F73B37" />
<path d="M7,0h1v1h-1z" fill="#F73B37" fill-opacity="1" />
<path d="M9,.46V1h-1V.54z" fill="#F63E34" />
<path d="M8,0h1v1h-1z" fill="#F63E34" fill-opacity="1" />
<path d="M10,.46V1h-1V.54z" fill="#F54131" />
<path d="M9,0h1v1h-1z" fill="#F54131" fill-opacity="1" />
<path d="M11,.46V1h-1V.54z" fill="#F5432E" />
<path d="M10,0h1v1h-1z" fill="#F5432E" fill-opacity="1" />
<path d="M12,.46V1h-1V.54z" fill="#F4462A" />
<path d="M11,0h1v1h-1z" fill="#F4462A" fill-opacity="1" />
<path d="M13,.46V1h-1V.54z" fill="#F34927" />
<path d="M12,0h1v1h-1z" fill="#F34927" fill-opacity="1" />
<path d="M14,.46V1h-1V.54z" fill="#F34B24" />
<path d="M13,0h1v1h-1z" fill="#F34B24" fill-opacity="1" />
<path d="M15,.46V1h-1V.54z" fill="#F24E21" />
<path d="M14,0h1v1h-1z" fill="#F24E21" fill-opacity="1" />
<path d="M16,.46V1h-1V.54z" fill="#F1501E" />
<path d="M15,0h1v1h-1z" fill="#F1501E" fill-opacity="1" />
<path d="M17,.46V1h-1V.54z" fill="#F1531B" />
<path d="M16,0h1v1h-1z" fill="#F1531B" fill-opacity="1" />
<path d="M18,.46V1h-1V.54z" fill="#F05618" />
<path d="M17,0h1v1h-1z" fill="#F05618" fill-opacity="1" />
<path d="M19,.46V1h-1V.54z" fill="#EF5815" />
<path d="M18,0h1v1h-1z" fill="#EF5815" fill-opacity="1" />
<path d="M20,.46V1h-1V.54z" fill="#EF5B12" />
<path d="M19,0h1v1h-1z" fill="#EF5B12" fill-opacity="1" />
<path d="M21,.46V1h-1V.54z" fill="#EE5E0F" />
<path d="M20,0h1v1h-1z" fill="#EE5E0F" fill-opacity="1" />
<path d="M22,.46V1h-1V.54z" fill="#ED600C" />
<path d="M21,0h1v1h-1z" fill="#ED600C" fill-opacity="1" />
<path d="M23,.46V1h-1V.54z" fill="#ED6308" />
<path d="M22,0h1v1h-1z" fill="#ED6308" fill-opacity="1" />
<path d="M24,.46V1h-1V.54z" fill="#EC6505" />
<path d="M23,0h1v1h-1z" fill="#EC6505" fill-opacity="1" />
<path d="M25,.46V1h-1V.54z" fill="#EB6802" />
<path d="M24,0h1v1h-1z" fill="#EB6802" fill-opacity="1" />
<path d="M26,.46V1h-1V.54z" fill="#EA6B00" />
<path d="M25,0h1v1h-1z" fill="#EA6B00" fill-opacity="1" />
<path d="M27,.46V1h-1V.54z" fill="#E86E00" />
<path d="M26,0h1v1h-1z" fill="#E86E00" fill-opacity="1" />
<path d="M28,.46V1h-1V.54z" fill="#E67100" />
<path d="M27,0h1v1h-1z" fill="#E67100" fill-opacity="1" />
<path d="M29,.46V1h-1V.54z" fill="#E47400" />
<path d="M28,0h1v1h-1z" fill="#E47400" fill-opacity="1" />
<path d="M30,.46V1h-1V.54z" fill="#E27700" />
<path d="M29,0h1v1h-1z" fill="#E27700" fill-opacity="1" />
<path d="M31,.46V1h-1V.54z" fill="#DF7A00" />
<path d="M30,0h1v1h-1z" fill="#DF7A00" fill-opacity="1" />
<path d="M32,.46V1h-1V.54z" fill="#DD7D00" />
<path d="M31,0h1v1h-1z" fill="#DD7D00" fill-opacity="1" />
<path d="M33,.46V1h-1V.54z" fill="#DB8001" />
<path d="M32,0h1v1h-1z" fill="#DB8001" fill-opacity="1" />
<path d="M34,.46V1h-1V.54z" fill="#D98301" />
<path d="M33,0h1v1h-1z" fill="#D98301" fill-opacity="1" />
<path d="M35,.46V1h-1V.54z" fill="#D78601" />
<path d="M34,0h1v1h-1z" fill="#D78601" fill-opacity="1" />
<path d="M36,.46V1h-1V.54z" fill="#D48901" />
<path d="M35,0h1v1h-1z" fill="#D48901" fill-opacity="1" />
<path d="M37,.46V1h-1V.54z" fill="#D18B01" />
<path d="M36,0h1v1h-1z" fill="#D18B01" fill-opacity="1" />
<path d="M38,.46V1h-1V.54z" fill="#CE8C00" />
<path d="M37,0h1v1h-1z" fill="#CE8C00" fill-opacity="1" />
<path d="M39,.46V1h-1V.54z" fill="#CB8E00" />
<path d="M38,0h1v1h-1z" fill="#CB8E00" fill-opacity="1" />
<path d="M40,.46V1h-1V.54z" fill="#C89000" />
<path d="M39,0h1v1h-1z" fill="#C89000" fill-opacity="1" />
<path d="M41,.46V1h-1V.54z" fill="#C59201" />
<path d="M40,0h1v1h-1z" fill="#C59201" fill-opacity="1" />
<path d="M42,.46V1h-1V.54z" fill="#C29305" />
<path d="M41,0h1v1h-1z" fill="#C29305" fill-opacity="1" />
<path d="M43,.46V1h-1V.54z" fill="#C09408" />
<path d="M42,0h1v1h-1z" fill="#C09408" fill-opacity="1" />
<path d="M44,.46V1h-1V.54z" fill="#BD950B" />
<path d="M43,0h1v1h-1z" fill="#BD950B" fill-opacity="1" />
<path d="M45,.46V1h-1V.54z" fill="#BA960E" />
<path d="M44,0h1v1h-1z" fill="#BA960E" fill-opacity="1" />
<path d="M46,.46V1h-1V.54z" fill="#B79712" />
<path d="M45,0h1v1h-1z" fill="#B79712" fill-opacity="1" />
<path d="M47,.46V1h-1V.54z" fill="#B49815" />
<path d="M46,0h1v1h-1z" fill="#B49815" fill-opacity="1" />
<path d="M48,.46V1h-1V.54z" fill="#B19918" />
<path d="M47,0h1v1h-1z" fill="#B19918" fill-opacity="1" />
<path d="M49,.46V1h-1V.54z" fill="#AE9A1C" />
<path d="M48,0h1v1h-1z" fill="#AE9A1C" fill-opacity="1" />
<path d="M50,.46V1h-1V.54z" fill="#AB9B1F" />
<path d="M49,0h1v1h-1z" fill="#AB9B1F" fill-opacity="1" />
<path d="M51,.46V1h-1V.54z" fill="#A89C22" />
<path d="M50,0h1v1h-1z" fill="#A89C22" fill-opacity="1" />
<path d="M52,.46V1h-1V.54z" fill="#A59D26" />
<path d="M51,0h1v1h-1z" fill="#A59D26" fill-opacity="1" />
<path d="M53,.46V1h-1V.54z" fill="#A29F29" />
<path d="M52,0h1v1h-1z" fill="#A29F29" fill-opacity="1" />
<path d="M54,.46V1h-1V.54z" fill="#A0A02C" />
<path d="M53,0h1v1h-1z" fill="#A0A02C" fill-opacity="1" />
<path d="M55,.46V1h-1V.54z" fill="#9DA12F" />
<path d="M54,0h1v1h-1z" fill="#9DA12F" fill-opacity="1" />
<path d="M56,.46V1h-1V.54z" fill="#9AA233" />
<path d="M55,0h1v1h-1z" fill="#9AA233" fill-opacity="1" />
<path d="M57,.46V1h-1V.54z" fill="#97A336" />
<path d="M56,0h1v1h-1z" fill="#97A336" fill-opacity="1" />
<path d="M58,.46V1h-1V.54z" fill="#94A439" />
<path d="M57,0h1v1h-1z" fill="#94A439" fill-opacity="1" />
<path d="M59,.46V1h-1V.54z" fill="#91A53D" />
<path d="M58,0h1v1h-1z" fill="#91A53D" fill-opacity="1" />
<path d="M60,.46V1h-1V.54z" fill="#8EA640" />
<path d="M59,0h1v1h-1z" fill="#8EA640" fill-opacity="1" />
<path d="M61,.46V1h-1V.54z" fill="#8AA744" />
<path d="M60,0h1v1h-1z" fill="#8AA744" fill-opacity="1" />
<path d="M62,.46V1h-1V.54z" fill="#86A849" />
<path d="M61,0h1v1h-1z" fill="#86A849" fill-opacity="1" />
<path d="M63,.46V1h-1V.54z" fill="#81A94D" />
<path d="M62,0h1v1h-1z" fill="#81A94D" fill-opacity="1" />
<path d="M64,.46V1h-1V.54z" fill="#7DAA52" />
<path d="M63,0h1v1h-1z" fill="#7DAA52" fill-opacity="1" />
<path d="M65,.46V1h-1V.54z" fill="#79AB56" />
<path d="M64,0h1v1h-1z" fill="#79AB56" fill-opacity="1" />
<path d="M66,.46V1h-1V.54z" fill="#6FAB5D" />
<path d="M65,0h1v1h-1z" fill="#6FAB5D" fill-opacity="1" />
<path d="M67,.46V1h-1V.54z" fill="#63AC65" />
<path d="M66,0h1v1h-1z" fill="#63AC65" fill-opacity="1" />
<path d="M68,.46V1h-1V.54z" fill="#57AD6C" />
<path d="M67,0h1v1h-1z" fill="#57AD6C" fill-opacity="1" />
<path d="M69,.46V1h-1V.54z" fill="#4BAE74" />
<path d="M68,0h1v1h-1z" fill="#4BAE74" fill-opacity="1" />
<path d="M70,.46V1h-1V.54z" fill="#3FAE7C" />
<path d="M69,0h1v1h-1z" fill="#3FAE7C" fill-opacity="1" />
<path d="M71,.46V1h-1V.54z" fill="#33AF83" />
<path d="M70,0h1v1h-1z" fill="#33AF83" fill-opacity="1" />
<path d="M72,.46V1h-1V.54z" fill="#27B08B" />
<path d="M71,0h1v1h-1z" fill="#27B08B" fill-opacity="1" />
<path d="M73,.46V1h-1V.54z" fill="#1BB093" />
<path d="M72,0h1v1h-1z" fill="#1BB093" fill-opacity="1" />
<path d="M74,.46V1h-1V.54z" fill="#0FB19A" />
<path d="M73,0h1v1h-1z" fill="#0FB19A" fill-opacity="1" />
<path d="M75,.46V1h-1V.54z" fill="#03B2A2" />
<path d="M74,0h1v1h-1z" fill="#03B2A2" fill-opacity="1" />
<path d="M76,.46V1h-1V.54z" fill="#03B1A6" />
<path d="M75,0h1v1h-1z" fill="#03B1A6" fill-opacity="1" />
<path d="M77,.46V1h-1V.54z" fill="#07B0A9" />
<path d="M76,0h1v1h-1z" fill="#07B0A9" fill-opacity="1" />
<path d="M78,.46V1h-1V.54z" fill="#0BAFAC" />
<path d="M77,0h1v1h-1z" fill="#0BAFAC" fill-opacity="1" />
<path d="M79,.46V1h-1V.54z" fill="#0FAEAF" />
<path d="M78,0h1v1h-1z" fill="#0FAEAF" fill-opacity="1" />
<path d="M80,.46V1h-1V.54z" fill="#13ADB2" />
<path d="M79,0h1v1h-1z" fill="#13ADB2" fill-opacity="1" />
<path d="M81,.46V1h-1V.54z" fill="#17ABB5" />
<path d="M80,0h1v1h-1z" fill="#17ABB5" fill-opacity="1" />
<path d="M82,.46V1h-1V.54z" fill="#1BAAB8" />
<path d="M81,0h1v1h-1z" fill="#1BAAB8" fill-opacity="1" />
<path d="M83,.46V1h-1V.54z" fill="#1FA9BB" />
<path d="M82,0h1v1h-1z" fill="#1FA9BB" fill-opacity="1" />
<path d="M84,.46V1h-1V.54z" fill="#23A8BE" />
<path d="M83,0h1v1h-1z" fill="#23A8BE" fill-opacity="1" />
<path d="M85,.46V1h-1V.54z" fill="#27A7C1" />
<path d="M84,0h1v1h-1z" fill="#27A7C1" fill-opacity="1" />
<path d="M86,.46V1h-1V.54z" fill="#2BA5C4" />
<path d="M85,0h1v1h-1z" fill="#2BA5C4" fill-opacity="1" />
<path d="M87,.46V1h-1V.54z" fill="#2FA4C7" />
<path d="M86,0h1v1h-1z" fill="#2FA4C7" fill-opacity="1" />
<path d="M88,.46V1h-1V.54z" fill="#34A3CA" />
<path d="M87,0h1v1h-1z" fill="#34A3CA" fill-opacity="1" />
<path d="M89,.46V1h-1V.54z" fill="#38A2CD" />
<path d="M88,0h1v1h-1z" fill="#38A2CD" fill-opacity="1" />
<path d="M90,.46V1h-1V.54z" fill="#3CA1CF" />
<path d="M89,0h1v1h-1z" fill="#3CA1CF" fill-opacity="1" />
<path d="M91,.46V1h-1V.54z" fill="#40A0D2" />
<path d="M90,0h1v1h-1z" fill="#40A0D2" fill-opacity="1" />
<path d="M92,.46V1h-1V.54z" fill="#449ED5" />
<path d="M91,0h1v1h-1z" fill="#449ED5" fill-opacity="1" />
<path d="M93,.46V1h-1V.54z" fill="#489DD8" />
<path d="M92,0h1v1h-1z" fill="#489DD8" fill-opacity="1" />
<path d="M94,.46V1h-1V.54z" fill="#4C9CDB" />
<path d="M93,0h1v1h-1z" fill="#4C9CDB" fill-opacity="1" />
<path d="M95,.46V1h-1V.54z" fill="#509BDE" />
<path d="M94,0h1v1h-1z" fill="#509BDE" fill-opacity="1" />
<path d="M96,.46V1h-1V.54z" fill="#549AE1" />
<path d="M95,0h1v1h-1z" fill="#549AE1" fill-opacity="1" />
<path d="M97,.46V1h-1V.54z" fill="#5899E4" />
<path d="M96,0h1v1h-1z" fill="#5899E4" fill-opacity="1" />
<path d="M98,.46V1h-1V.54z" fill="#5C97E7" />
<path d="M97,0h1v1h-1z" fill="#5C97E7" fill-opacity="1" />
<path d="M99,.46V1h-1V.54z" fill="#6096EA" />
<path d="M98,0h1v1h-1z" fill="#6096EA" fill-opacity="1" />
<path d="M100,.46V1h-1V.54z" fill="#6495ED" />
<path d="M99,0h1v1h-1z" fill="#6495ED" fill-opacity="1" />
</svg>