<?xml version="1.0" encoding="UTF-8"?>
<!DOCTYPE svg PUBLIC "-//W3C//DTD SVG 1.1//EN"
 "http://www.w3.org/Graphics/SVG/1.1/DTD/svg11.dtd">
<svg xmlns="http://www.w3.org/2000/svg" version="1.1"
     width="180mm" height="25mm" viewBox="0 0 100 1" stroke="none"
     preserveAspectRatio="none" shape-rendering="crispEdges">
<defs>
    <pattern id="pat_4dt2XD" width=".2" height=".2"
             patternUnits="userSpaceOnUse" patternTransform="scale(13.889,1)" >
        <path d="M.1,0h.1v.1h-.2v.1h.1z" fill="#999" opacity=".5" />
    </pattern>
</defs>
<rect width="100" height="1" fill="url(#pat_4dt2XD)" />
<path d="M1,.46V1h-1V.54z" fill="#F93D53" />
<path d="M0,0h1v1h-1z" fill="#F93D53" fill-opacity="1" />
<path d="M2,.46V1h-1V.54z" fill="#F73F57" />
<path d="M1,0h1v1h-1z" fill="#F73F57" fill-opacity="1" />
<path d="M3,.46V1h-1V.54z" fill="#F5415C" />
<path d="M2,0h1v1h-1z" fill="#F5415C" fill-opacity="1" />
<path d="M4,.46V1h-1V.54z" fill="#F34360" />
<path d="M3,0h1v1h-1z" fill="#F34360" fill-opacity="1" />
<path d="M5,.46V1h-1V.54z" fill="#F04565" />
<path d="M4,0h1v1h-1z" fill="#F04565" fill-opacity="1" />
<path d="M6,.46V1h-1V.54z" fill="#EE4769" />
<path d="M5,0h1v1h-1z" fill="#EE4769" fill-opacity="1" />
<path d="M7,.46V1h-1V.54z" fill="#EC496E" />
<path d="M6,0h1v1h-1z" fill="#EC496E" fill-opacity="1" />
<path d="M8,.46V1h-1V.54z" fill="#EA4B72" />
<path d="M7,0h1v1h-1z" fill="#EA4B72" fill-opacity="1" />
<path d="M9,.46V1h-1V.54z" fill="#E84E77" />
<path d="M8,0h1v1h-1z" fill="#E84E77" fill-opacity="1" />
<path d="M10,.46V1h-1V.54z" fill="#E6507B" />
<path d="M9,0h1v1h-1z" fill="#E6507B" fill-opacity="1" />
<path d="M11,.46V1h-1V.54z" fill="#E35280" />
<path d="M10,0h1v1h-1z" fill="#E35280" fill-opacity="1" />
<path d="M12,.46V1h-1V.54z" fill="#E15484" />
<path d="M11,0h1v1h-1z" fill="#E15484" fill-opacity="1" />
<path d="M13,.46V1h-1V.54z" fill="#DF5688" />
<path d="M12,0h1v1h-1z" fill="#DF5688" fill-opacity="1" />
<path d="M14,.46V1h-1V.54z" fill="#DD588D" />
<path d="M13,0h1v1h-1z" fill="#DD588D" fill-opacity="1" />
<path d="M15,.46V1h-1V.54z" fill="#DB5A91" />
<path d="M14,0h1v1h-1z" fill="#DB5A91" fill-opacity="1" />
<path d="M16,.46V1h-1V.54z" fill="#D95C96" />
<path d="M15,0h1v1h-1z" fill="#D95C96" fill-opacity="1" />
<path d="M17,.46V1h-1V.54z" fill="#D65E9A" />
<path d="M16,0h1v1h-1z" fill="#D65E9A" fill-opacity="1" />
<path d="M18,.46V1h-1V.54z" fill="#D4609F" />
<path d="M17,0h1v1h-1z" fill="#D4609F" fill-opacity="1" />
<path d="M19,.46V1h-1V.54z" fill="#D262A3" />
<path d="M18,0h1v1h-1z" fill="#D262A3" fill-opacity="1" />
<path d="M20,.46V1h-1V.54z" fill="#D064A8" />
<path d="M19,0h1v1h-1z" fill="#D064A8" fill-opacity="1" />
<path d="M21,.46V1h-1V.54z" fill="#CE66AC" />
<path d="M20,0h1v1h-1z" fill="#CE66AC" fill-opacity="1" />
<path d="M22,.46V1h-1V.54z" fill="#CC68B0" />
<path d="M21,0h1v1h-1z" fill="#CC68B0" fill-opacity="1" />
<path d="M23,.46V1h-1V.54z" fill="#C96AB5" />
<path d="M22,0h1v1h-1z" fill="#C96AB5" fill-opacity="1" />
<path d="M24,.46V1h-1V.54z" fill="#C76DB9" />
<path d="M23,0h1v1h-1z" fill="#C76DB9" fill-opacity="1" />
<path d="M25,.46V1h-1V.54z" fill="#C56FBE" />
<path d="M24,0h1v1h-1z" fill="#C56FBE" fill-opacity="1" />
<path d="M26,.46V1h-1V.54z" fill="#C371C2" />
<path d="M25,0h1v1h-1z" fill="#C371C2" fill-opacity="1" />
<path d="M27,.46V1h-1V.54z" fill="#C173C7" />
<path d="M26,0h1v1h-1z" fill="#C173C7" fill-opacity="1" />
<path d="M28,.46V1h-1V.54z" fill="#BF75CB" />
<path d="M27,0h1v1h-1z" fill="#BF75CB" fill-opacity="1" />
<path d="M29,.46V1h-1V.54z" fill="#BC77D0" />
<path d="M28,0h1v1h-1z" fill="#BC77D0" fill-opacity="1" />
<path d="M30,.46V1h-1V.54z" fill="#BA79D4" />
<path d="M29,0h1v1h-1z" fill="#BA79D4" fill-opacity="1" />
<path d="M31,.46V1h-1V.54z" fill="#B87BD8" />
<path d="M30,0h1v1h-1z" fill="#B87BD8" fill-opacity="1" />
<path d="M32,.46V1h-1V.54z" fill="#B47DD9" />
<path d="M31,0h1v1h-1z" fill="#B47DD9" fill-opacity="1" />
<path d="M33,.46V1h-1V.54z" fill="#B07FDB" />
<path d="M32,0h1v1h-1z" fill="#B07FDB" fill-opacity="1" />
<path d="M34,.46V1h-1V.54z" fill="#AC81DD" />
<path d="M33,0h1v1h-1z" fill="#AC81DD" fill-opacity="1" />
<path d="M35,.46V1h-1V.54z" fill="#A983DF" />
<path d="M34,0h1v1h-1z" fill="#A983DF" fill-opacity="1" />
<path d="M36,.46V1h-1V.54z" fill="#A584E0" />
<path d="M35,0h1v1h-1z" fill="#A584E0" fill-opacity="1" />
<path d="M37,.46V1h-1V.54z" fill="#A186E2" />
<path d="M36,0h1v1h-1z" fill="#A186E2" fill-opacity="1" />
<path d="M38,.46V1h-1V.54z" fill="#9D88E4" />
<path d="M37,0h1v1h-1z" fill="#9D88E4" fill-opacity="1" />
<path d="M39,.46V1h-1V.54z" fill="#9A8AE5" />
<path d="M38,0h1v1h-1z" fill="#9A8AE5" fill-opacity="1" />
<path d="M40,.46V1h-1V.54z" fill="#968CE7" />
<path d="M39,0h1v1h-1z" fill="#968CE7" fill-opacity="1" />
<path d="M41,.46V1h-1V.54z" fill="#928EE9" />
<path d="M40,0h1v1h-1z" fill="#928EE9" fill-opacity="1" />
<path d="M42,.46V1h-1V.54z" fill="#8E90EB" />
<path d="M41,0h1v1h-1z" fill="#8E90EB" fill-opacity="1" />
<path d="M43,.46V1h-1V.54z" fill="#8B92EC" />
<path d="M42,0h1v1h-1z" fill="#8B92EC" fill-opacity="1" />
<path d="M44,.46V1h-1V.54z" fill="#8794EE" />
<path d="M43,0h1v1h-1z" fill="#8794EE" fill-opacity="1" />
<path d="M45,.46V1h-1V.54z" fill="#8396F0" />
<path d="M44,0h1v1h-1z" fill="#8396F0" fill-opacity="1" />
<path d="M46,.46V1h-1V.54z" fill="#7F98F1" />
<path d="M45,0h1v1h-1z" fill="#7F98F1" fill-opacity="1" />
<path d="M47,.46V1h-1V.54z" fill="#7C99F3" />
<path d="M46,0h1v1h-1z" fill="#7C99F3" fill-opacity="1" />
<path d="M48,.46V1h-1V.54z" fill="#789BF5" />
<path d="M47,0h1v1h-1z" fill="#789BF5" fill-opacity="1" />
<path d="M49,.46V1h-1V.54z" fill="#749DF7" />
<path d="M48,0h1v1h-1z" fill="#749DF7" fill-opacity="1" />
<path d="M50,.46V1h-1V.54z" fill="#709FF8" />
<path d="M49,0h1v1h-1z" fill="#709FF8" fill-opacity="1" />
<path d="M51,.46V1h-1V.54z" fill="#6FA1F6" />
<path d="M50,0h1v1h-1z" fill="#6FA1F6" fill-opacity="1" />
<path d="M52,.46V1h-1V.54z" fill="#70A2F0" />
<path d="M51,0h1v1h-1z" fill="#70A2F0" fill-opacity="1" />
<path d="M53,.46V1h-1V.54z" fill="#71A3EB" />
<path d="M52,0h1v1h-1z" fill="#71A3EB" fill-opacity="1" />
<path d="M54,.46V1h-1V.54z" fill="#72A4E5" />
<path d="M53,0h1v1h-1z" fill="#72A4E5" fill-opacity="1" />
<path d="M55,.46V1h-1V.54z" fill="#73A5DF" />
<path d="M54,0h1v1h-1z" fill="#73A5DF" fill-opacity="1" />
<path d="M56,.46V1h-1V.54z" fill="#74A6D9" />
<path d="M55,0h1v1h-1z" fill="#74A6D9" fill-opacity="1" />
<path d="M57,.46V1h-1V.54z" fill="#75A8D3" />
<path d="M56,0h1v1h-1z" fill="#75A8D3" fill-opacity="1" />
<path d="M58,.46V1h-1V.54z" fill="#76A9CD" />
<path d="M57,0h1v1h-1z" fill="#76A9CD" fill-opacity="1" />
<path d="M59,.46V1h-1V.54z" fill="#77AAC8" />
<path d="M58,0h1v1h-1z" fill="#77AAC8" fill-opacity="1" />
<path d="M60,.46V1h-1V.54z" fill="#78ABC2" />
<path d="M59,0h1v1h-1z" fill="#78ABC2" fill-opacity="1" />
<path d="M61,.46V1h-1V.54z" fill="#79ACBC" />
<path d="M60,0h1v1h-1z" fill="#79ACBC" fill-opacity="1" />
<path d="M62,.46V1h-1V.54z" fill="#7AADB6" />
<path d="M61,0h1v1h-1z" fill="#7AADB6" fill-opacity="1" />
<path d="M63,.46V1h-1V.54z" fill="#7BAEB0" />
<path d="M62,0h1v1h-1z" fill="#7BAEB0" fill-opacity="1" />
<path d="M64,.46V1h-1V.54z" fill="#7CB0AA" />
<path d="M63,0h1v1h-1z" fill="#7CB0AA" fill-opacity="1" />
<path d="M65,.46V1h-1V.54z" fill="#7DB1A5" />
<path d="M64,0h1v1h-1z" fill="#7DB1A5" fill-opacity="1" />
<path d="M66,.46V1h-1V.54z" fill="#7EB29F" />
<path d="M65,0h1v1h-1z" fill="#7EB29F" fill-opacity="1" />
<path d="M67,.46V1h-1V.54z" fill="#7FB399" />
<path d="M66,0h1v1h-1z" fill="#7FB399" fill-opacity="1" />
<path d="M68,.46V1h-1V.54z" fill="#80B493" />
<path d="M67,0h1v1h-1z" fill="#80B493" fill-opacity="1" />
<path d="M69,.46V1h-1V.54z" fill="#81B58D" />
<path d="M68,0h1v1h-1z" fill="#81B58D" fill-opacity="1" />
<path d="M70,.46V1h-1V.54z" fill="#82B687" />
<path d="M69,0h1v1h-1z" fill="#82B687" fill-opacity="1" />
<path d="M71,.46V1h-1V.54z" fill="#83B882" />
<path d="M70,0h1v1h-1z" fill="#83B882" fill-opacity="1" />
<path d="M72,.46V1h-1V.54z" fill="#84B97C" />
<path d="M71,0h1v1h-1z" fill="#84B97C" fill-opacity="1" />
<path d="M73,.46V1h-1V.54z" fill="#85BA76" />
<path d="M72,0h1v1h-1z" fill="#85BA76" fill-opacity="1" />
<path d="M74,.46V1h-1V.54z" fill="#86BB70" />
<path d="M73,0h1v1h-1z" fill="#86BB70" fill-opacity="1" />
<path d="M75,.46V1h-1V.54z" fill="#87BC6A" />
<path d="M74,0h1v1h-1z" fill="#87BC6A" fill-opacity="1" />
<path d="M76,.46V1h-1V.54z" fill="#8BBC67" />
<path d="M75,0h1v1h-1z" fill="#8BBC67" fill-opacity="1" />
<path d="M77,.46V1h-1V.54z" fill="#90BB64" />
<path d="M76,0h1v1h-1z" fill="#90BB64" fill-opacity="1" />
<path d="M78,.46V1h-1V.54z" fill="#95BA62" />
<path d="M77,0h1v1h-1z" fill="#95BA62" fill-opacity="1" />
<path d="M79,.46V1h-1V.54z" fill="#9AB95F" />
<path d="M78,0h1v1h-1z" fill="#9AB95F" fill-opacity="1" />
<path d="M80,.46V1h-1V.54z" fill="#9FB95D" />
<path d="M79,0h1v1h-1z" fill="#9FB95D" fill-opacity="1" />
<path d="M81,.46V1h-1V.54z" fill="#A3B85A" />
<path d="M80,0h1v1h-1z" fill="#A3B85A" fill-opacity="1" />
<path d="M82,.46V1h-1V.54z" fill="#A8B757" />
<path d="M81,0h1v1h-1z" fill="#A8B757" fill-opacity="1" />
<path d="M83,.46V1h-1V.54z" fill="#ADB655" />
<path d="M82,0h1v1h-1z" fill="#ADB655" fill-opacity="1" />
<path d="M84,.46V1h-1V.54z" fill="#B2B552" />
<path d="M83,0h1v1h-1z" fill="#B2B552" fill-opacity="1" />
<path d="M85,.46V1h-1V.54z" fill="#B7B550" />
<path d="M84,0h1v1h-1z" fill="#B7B550" fill-opacity="1" />
<path d="M86,.46V1h-1V.54z" fill="#BBB44D" />
<path d="M85,0h1v1h-1z" fill="#BBB44D" fill-opacity="1" />
<path d="M87,.46V1h-1V.54z" fill="#C0B34A" />
<path d="M86,0h1v1h-1z" fill="#C0B34A" fill-opacity="1" />
<path d="M88,.46V1h-1V.54z" fill="#C5B248" />
<path d="M87,0h1v1h-1z" fill="#C5B248" fill-opacity="1" />
<path d="M89,.46V1h-1V.54z" fill="#CAB145" />
<path d="M88,0h1v1h-1z" fill="#CAB145" fill-opacity="1" />
<path d="M90,.46V1h-1V.54z" fill="#CFB043" />
<path d="M89,0h1v1h-1z" fill="#CFB043" fill-opacity="1" />
<path d="M91,.46V1h-1V.54z" fill="#D4B040" />
<path d="M90,0h1v1h-1z" fill="#D4B040" fill-opacity="1" />
<path d="M92,.46V1h-1V.54z" fill="#D8AF3E" />
<path d="M91,0h1v1h-1z" fill="#D8AF3E" fill-opacity="1" />
<path d="M93,.46V1h-1V.54z" fill="#DDAE3B" />
<path d="M92,0h1v1h-1z" fill="#DDAE3B" fill-opacity="1" />
<path d="M94,.46V1h-1V.54z" fill="#E2AD38" />
<path d="M93,0h1v1h-1z" fill="#E2AD38" fill-opacity="1" />
<path d="M95,.46V1h-1V.54z" fill="#E7AC36" />
<path d="M94,0h1v1h-1z" fill="#E7AC36" fill-opacity="1" />
<path d="M96,.46V1h-1V.54z" fill="#ECAC33" />
<path d="M95,0h1v1h-1z" fill="#ECAC33" fill-opacity="1" />
<path d="M97,.46V1h-1V.54z" fill="#F1AB31" />
<path d="M96,0h1v1h-1z" fill="#F1AB31" fill-opacity="1" />
<path d="M98,.46V1h-1V.54z" fill="#F5AA2E" />
<path d="M97,0h1v1h-1z" fill="#F5AA2E" fill-opacity="1" />
<path d="M99,.46V1h-1V.54z" fill="#FAA92B" />
<path d="M98,0h1v1h-1z" fill="#FAA92B" fill-opacity="1" />
<path d="M100,.46V1h-1V.54z" fill="#FFA829" />
<path d="M99,0h1v1h-1z" fill="#FFA829" fill-opacity="1" />
</svg>